<?xml version="1.0" encoding="utf-8"?>
<!-- Generator: Adobe Illustrator 28.0.0, SVG Export Plug-In . SVG Version: 6.00 Build 0)  -->
<svg version="1.1" id="Calque_1" xmlns="http://www.w3.org/2000/svg" xmlns:xlink="http://www.w3.org/1999/xlink" x="0px" y="0px"
	 viewBox="0 0 980.2 269.7" style="enable-background:new 0 0 980.2 269.7;" xml:space="preserve">
<style type="text/css">
	.st0{fill:#FBBC05;}
	.st1{fill:#FFFFFF;stroke:#000000;stroke-width:2;stroke-miterlimit:10;}
</style>
<g>
	<g>
		<g>
			<path d="M369.8,81.5c-4.5,0-8.8-0.8-12.8-2.5c-4-1.7-7.6-4-10.6-7.1c-3-3-5.4-6.6-7.2-10.6c-1.7-4.1-2.6-8.5-2.6-13.2
				c0-4.8,0.9-9.2,2.6-13.2c1.7-4.1,4.1-7.6,7.2-10.6c3-3,6.6-5.4,10.6-7.1c4-1.7,8.3-2.5,12.8-2.5c4.7,0,9.1,0.8,13.3,2.5
				c4.1,1.7,7.6,4,10.2,7.1l-5.4,5.4c-1.4-1.7-3-3.1-4.9-4.2c-1.9-1.1-4-2-6.2-2.6c-2.2-0.6-4.5-0.9-7-0.9c-3.4,0-6.6,0.6-9.7,1.8
				c-3.1,1.2-5.8,3-8.2,5.3c-2.4,2.3-4.2,5.1-5.6,8.3c-1.4,3.2-2.1,6.8-2.1,10.8c0,4,0.7,7.6,2.1,10.8c1.4,3.2,3.3,6,5.7,8.3
				c2.4,2.3,5.1,4.1,8.2,5.3c3.1,1.2,6.3,1.8,9.6,1.8c2.9,0,5.6-0.4,8.4-1.2c2.7-0.8,5.2-2.1,7.3-3.8c2.2-1.7,4-3.9,5.4-6.6
				c1.4-2.7,2.3-5.9,2.6-9.7H370V46h30.8c0.1,0.8,0.2,1.5,0.3,2.2c0.1,0.7,0.1,1.5,0.1,2.3v0.1c0,4.6-0.8,8.8-2.3,12.6
				c-1.5,3.8-3.7,7-6.5,9.7c-2.8,2.7-6.1,4.8-9.9,6.3C378.6,80.7,374.4,81.5,369.8,81.5z"/>
			<path d="M432.6,81.5c-4.6,0-8.6-1.1-12.2-3.2c-3.5-2.1-6.3-5.1-8.3-8.7c-2-3.7-3-7.8-3-12.3s1-8.6,3-12.3c2-3.7,4.8-6.6,8.3-8.7
				c3.5-2.1,7.6-3.2,12.2-3.2c4.6,0,8.6,1.1,12.2,3.3c3.5,2.2,6.3,5.1,8.3,8.8c2,3.7,3,7.7,3,12.2c0,4.5-1,8.6-3,12.3
				c-2,3.7-4.8,6.6-8.3,8.7C441.3,80.4,437.2,81.5,432.6,81.5z M432.6,74.6c2.7,0,5.3-0.7,7.7-2.1s4.4-3.4,5.9-5.9
				c1.5-2.6,2.2-5.7,2.2-9.3c0-3.6-0.7-6.7-2.2-9.3c-1.5-2.6-3.4-4.6-5.9-5.9c-2.4-1.4-5-2.1-7.7-2.1c-2.7,0-5.3,0.7-7.8,2.1
				c-2.4,1.4-4.4,3.4-5.9,5.9c-1.5,2.6-2.2,5.7-2.2,9.3c0,3.6,0.7,6.7,2.2,9.3c1.5,2.6,3.5,4.6,5.9,5.9
				C427.3,73.9,429.9,74.6,432.6,74.6z"/>
			<path d="M485.7,81.5c-4.6,0-8.6-1.1-12.2-3.2c-3.5-2.1-6.3-5.1-8.3-8.7c-2-3.7-3-7.8-3-12.3s1-8.6,3-12.3c2-3.7,4.8-6.6,8.3-8.7
				c3.5-2.1,7.6-3.2,12.2-3.2c4.6,0,8.6,1.1,12.2,3.3c3.5,2.2,6.3,5.1,8.3,8.8c2,3.7,3,7.7,3,12.2c0,4.5-1,8.6-3,12.3
				c-2,3.7-4.8,6.6-8.3,8.7C494.4,80.4,490.3,81.5,485.7,81.5z M485.7,74.6c2.7,0,5.3-0.7,7.7-2.1c2.4-1.4,4.4-3.4,5.9-5.9
				c1.5-2.6,2.2-5.7,2.2-9.3c0-3.6-0.7-6.7-2.2-9.3c-1.5-2.6-3.4-4.6-5.9-5.9c-2.4-1.4-5-2.1-7.7-2.1c-2.7,0-5.3,0.7-7.8,2.1
				c-2.4,1.4-4.4,3.4-5.9,5.9c-1.5,2.6-2.2,5.7-2.2,9.3c0,3.6,0.7,6.7,2.2,9.3c1.5,2.6,3.5,4.6,5.9,5.9
				C480.4,73.9,483,74.6,485.7,74.6z"/>
			<path d="M537.8,100.8c-3.9,0-7.2-0.6-10-1.9c-2.8-1.3-5-2.9-6.7-4.9c-1.7-2-2.9-4-3.6-6l7-3c1,2.5,2.6,4.6,4.9,6.3
				c2.3,1.7,5.1,2.5,8.4,2.5c4.8,0,8.4-1.4,11-4.2c2.6-2.8,3.8-6.6,3.8-11.6v-5.1h-0.4c-1.4,2.2-3.5,4.1-6.2,5.6
				c-2.7,1.5-5.8,2.3-9.4,2.3c-3.9,0-7.5-1-10.8-3c-3.3-2-5.8-4.8-7.7-8.4c-1.9-3.6-2.9-7.8-2.9-12.5c0-4.7,1-8.9,2.9-12.5
				c1.9-3.6,4.5-6.4,7.7-8.4c3.2-2,6.8-3,10.8-3c3.6,0,6.7,0.8,9.4,2.3c2.7,1.5,4.7,3.4,6.2,5.7h0.4v-6.5h7.2v43.8
				c0,5.1-1,9.3-2.9,12.6c-1.9,3.3-4.6,5.8-7.9,7.5C545.8,100,542.1,100.8,537.8,100.8z M537.8,74.1c2.7,0,5.2-0.7,7.4-2
				c2.3-1.3,4.1-3.3,5.4-5.9c1.3-2.6,2-5.6,2-9.2c0-3.7-0.7-6.8-2-9.3c-1.3-2.5-3.1-4.5-5.4-5.8c-2.3-1.3-4.7-2-7.4-2
				c-2.7,0-5.2,0.7-7.4,2c-2.3,1.3-4.1,3.3-5.5,5.8c-1.4,2.5-2.1,5.6-2.1,9.3c0,3.6,0.7,6.7,2.1,9.3c1.4,2.5,3.2,4.5,5.5,5.8
				C532.7,73.4,535.2,74.1,537.8,74.1z"/>
			<path d="M571,80V16h7.6v64H571z"/>
			<path d="M610,81.5c-4.4,0-8.3-1-11.8-3.1c-3.4-2.1-6.1-4.9-8-8.6c-1.9-3.6-2.9-7.8-2.9-12.4c0-4.3,0.9-8.4,2.7-12.1
				c1.8-3.7,4.4-6.7,7.7-8.9c3.3-2.2,7.2-3.4,11.7-3.4c4.5,0,8.4,1,11.7,3c3.2,2,5.8,4.8,7.5,8.3c1.8,3.5,2.6,7.5,2.6,12.1
				c0,0.4,0,0.8,0,1.3c0,0.4-0.1,0.8-0.1,1.1h-39.2v-6.3h31.4c-0.1-1.3-0.3-2.6-0.8-4.1c-0.5-1.5-1.3-2.8-2.4-4.1
				c-1.1-1.3-2.5-2.3-4.2-3.1c-1.7-0.8-3.8-1.2-6.3-1.2c-3,0-5.6,0.8-7.7,2.3c-2.2,1.5-3.8,3.6-5,6.2c-1.2,2.6-1.7,5.6-1.7,8.9
				c0,3.9,0.7,7.1,2.2,9.7c1.5,2.6,3.4,4.5,5.8,5.7c2.4,1.3,4.8,1.9,7.4,1.9c3.3,0,6.1-0.8,8.3-2.4c2.2-1.6,3.9-3.5,5.2-5.9l6.4,3.1
				c-1.8,3.5-4.4,6.3-7.7,8.6C619.2,80.3,615,81.5,610,81.5z"/>
			<path d="M662.1,80V16h21.6c3.6,0,6.9,0.8,9.9,2.4c3,1.6,5.4,3.8,7.2,6.7c1.8,2.8,2.7,6.1,2.7,9.9c0,2.3-0.4,4.5-1.3,6.7
				c-0.8,2.2-2.1,4.3-3.9,6.1c-1.8,1.8-4,3.3-6.7,4.4c-2.7,1.1-5.9,1.7-9.7,1.7h-15.9v-7.1h17.2c2.2,0,4.3-0.5,6.2-1.5
				c1.9-1,3.5-2.4,4.6-4.2c1.2-1.8,1.8-3.8,1.8-6.2c0-1.9-0.5-3.8-1.5-5.5c-1-1.8-2.4-3.3-4.2-4.4c-1.8-1.2-3.9-1.7-6.4-1.7h-14.1
				V80H662.1z M677.6,50.7l8.3-0.4l20.2,29.4V80h-8.9L677.6,50.7z"/>
			<path d="M733.7,81.5c-4.4,0-8.3-1-11.8-3.1c-3.4-2.1-6.1-4.9-8-8.6C712,66.1,711,62,711,57.3c0-4.3,0.9-8.4,2.7-12.1
				c1.8-3.7,4.4-6.7,7.7-8.9c3.3-2.2,7.2-3.4,11.7-3.4c4.5,0,8.4,1,11.7,3c3.2,2,5.8,4.8,7.5,8.3c1.8,3.5,2.6,7.5,2.6,12.1
				c0,0.4,0,0.8,0,1.3c0,0.4-0.1,0.8-0.1,1.1h-39.2v-6.3h31.4c-0.1-1.3-0.3-2.6-0.8-4.1c-0.5-1.5-1.3-2.8-2.4-4.1
				c-1.1-1.3-2.5-2.3-4.2-3.1c-1.7-0.8-3.8-1.2-6.3-1.2c-3,0-5.6,0.8-7.7,2.3c-2.2,1.5-3.8,3.6-5,6.2c-1.2,2.6-1.7,5.6-1.7,8.9
				c0,3.9,0.7,7.1,2.2,9.7c1.5,2.6,3.4,4.5,5.8,5.7c2.4,1.3,4.8,1.9,7.4,1.9c3.3,0,6.1-0.8,8.3-2.4c2.2-1.6,3.9-3.5,5.2-5.9l6.4,3.1
				c-1.8,3.5-4.4,6.3-7.7,8.6C742.9,80.3,738.7,81.5,733.7,81.5z"/>
			<path d="M775.9,80l-18.4-45.6h8.1l14.1,36.7h0.2l14.3-36.7h8L783.6,80H775.9z"/>
			<path d="M811.9,26c-1.5,0-2.8-0.5-3.8-1.6c-1.1-1.1-1.6-2.4-1.6-3.8c0-1.5,0.5-2.8,1.6-3.9c1.1-1,2.4-1.6,3.8-1.6
				c1.5,0,2.8,0.5,3.9,1.6c1,1,1.6,2.3,1.6,3.9c0,1.5-0.5,2.8-1.6,3.8C814.7,25.5,813.4,26,811.9,26z M808.1,80V34.4h7.6V80H808.1z"
				/>
			<path d="M847.1,81.5c-4.4,0-8.3-1-11.8-3.1c-3.4-2.1-6.1-4.9-8-8.6c-1.9-3.6-2.9-7.8-2.9-12.4c0-4.3,0.9-8.4,2.7-12.1
				c1.8-3.7,4.4-6.7,7.7-8.9c3.3-2.2,7.2-3.4,11.7-3.4c4.5,0,8.4,1,11.7,3c3.2,2,5.8,4.8,7.5,8.3c1.8,3.5,2.6,7.5,2.6,12.1
				c0,0.4,0,0.8,0,1.3c0,0.4-0.1,0.8-0.1,1.1h-39.2v-6.3h31.4c-0.1-1.3-0.3-2.6-0.8-4.1c-0.5-1.5-1.3-2.8-2.4-4.1
				c-1.1-1.3-2.5-2.3-4.2-3.1c-1.7-0.8-3.8-1.2-6.3-1.2c-3,0-5.6,0.8-7.7,2.3c-2.2,1.5-3.8,3.6-5,6.2c-1.2,2.6-1.7,5.6-1.7,8.9
				c0,3.9,0.7,7.1,2.2,9.7c1.5,2.6,3.4,4.5,5.8,5.7c2.4,1.3,4.8,1.9,7.4,1.9c3.3,0,6.1-0.8,8.3-2.4c2.2-1.6,3.9-3.5,5.2-5.9l6.4,3.1
				c-1.8,3.5-4.4,6.3-7.7,8.6C856.3,80.3,852.1,81.5,847.1,81.5z"/>
			<path d="M886.6,80l-14.7-45.6h7.9l10.8,36h0.1l11.5-36h7.8l11.5,35.9h0.1l10.8-35.9h7.7L925.4,80h-7.7l-11.8-36.4L894.2,80H886.6
				z"/>
			<path d="M962.1,81.5c-3.4,0-6.4-0.6-9-1.7c-2.6-1.1-4.7-2.6-6.4-4.5c-1.7-1.9-3-3.9-3.8-6.1l6.8-3c1.2,2.7,2.9,4.9,5.2,6.3
				c2.3,1.5,4.9,2.2,7.8,2.2c2.8,0,5.1-0.6,7-1.7c1.9-1.1,2.8-2.8,2.8-5c0-1.4-0.4-2.5-1.2-3.4c-0.8-0.9-1.9-1.7-3.4-2.4
				c-1.5-0.7-3.3-1.3-5.5-1.8l-5.5-1.4c-2.1-0.6-4.2-1.4-6.1-2.5c-1.9-1.1-3.4-2.5-4.6-4.2c-1.2-1.7-1.7-3.8-1.7-6.2
				c0-2.7,0.8-5.1,2.4-7.1c1.6-2,3.7-3.5,6.3-4.5c2.6-1,5.4-1.6,8.4-1.6c2.6,0,5.1,0.4,7.4,1.1c2.3,0.7,4.3,1.8,6,3.3
				c1.7,1.5,3,3.3,3.9,5.4l-6.6,3c-1.1-2.3-2.7-3.8-4.6-4.7c-1.9-0.9-4-1.3-6.3-1.3c-2.5,0-4.7,0.6-6.5,1.7
				c-1.8,1.1-2.8,2.6-2.8,4.5c0,1.9,0.8,3.3,2.3,4.3c1.5,1,3.4,1.7,5.6,2.3l6.6,1.7c4.5,1.1,7.8,2.8,10.1,5.1c2.3,2.2,3.4,5,3.4,8.2
				c0,2.9-0.8,5.3-2.4,7.4c-1.6,2.1-3.8,3.7-6.5,4.8C968.5,80.9,965.5,81.5,962.1,81.5z"/>
		</g>
		<g>
			<g>
				<path d="M336.6,229.4v-16.4l47.1-71.9h22v111h-20.3v-80.8h-1.2l-25.1,39.2H419v18.9H336.6z"/>
				<path d="M448.4,252.9c-3.7,0-6.9-1.3-9.5-4c-2.6-2.6-4-5.8-4-9.5c0-3.7,1.3-6.9,4-9.5c2.6-2.6,5.8-3.9,9.5-3.9
					c3.7,0,6.9,1.3,9.5,3.9c2.6,2.6,4,5.7,4,9.5c0,3.7-1.3,6.9-4,9.5C455.3,251.6,452.1,252.9,448.4,252.9z"/>
				<path d="M512.3,255.1l-15.8-10.9c1.8-2.7,3.6-5.5,5.4-8.4c1.9-2.9,3.7-5.8,5.7-8.8c1.9-2.9,3.8-5.8,5.6-8.6
					c1.8-2.8,3.5-5.5,5.2-8.1l-0.9-0.9c-1,0.4-2.2,0.8-3.6,1.1c-1.4,0.3-2.9,0.5-4.4,0.5c-5.4,0-10.5-1.6-15.4-4.7
					c-4.9-3.1-8.8-7.3-11.9-12.7c-3.1-5.4-4.7-11.4-4.7-18.1c0-7.1,1.8-13.5,5.3-19.1c3.5-5.6,8.1-10,13.8-13.2
					c5.7-3.2,11.8-4.8,18.3-4.8c6.1,0,11.6,1.1,16.5,3.3c4.9,2.2,9,5.2,12.3,8.9c3,3.3,5.3,7.2,6.9,11.7c1.6,4.5,2.4,9.1,2.4,13.9
					c0,7.1-1.5,13.8-4.5,20c-3,6.2-6.5,12.5-10.5,18.9c-2.6,4-5.3,8.3-8.3,12.9c-2.9,4.6-5.9,9.2-8.9,13.8
					C517.7,246.6,514.9,251,512.3,255.1z M515.2,194.2c3.1,0,6-0.8,8.7-2.5c2.7-1.7,4.9-3.9,6.6-6.7c1.7-2.8,2.6-6,2.6-9.5
					c0-3.5-0.9-6.6-2.6-9.4c-1.7-2.7-3.9-4.9-6.6-6.5c-2.7-1.6-5.6-2.4-8.7-2.4c-3.1,0-6,0.8-8.8,2.4c-2.7,1.6-5,3.8-6.7,6.5
					c-1.7,2.7-2.6,5.9-2.6,9.4c0,3.5,0.9,6.7,2.6,9.5c1.7,2.8,3.9,5.1,6.7,6.7C509.2,193.3,512.1,194.2,515.2,194.2z"/>
			</g>
			<g>
				<path class="st0" d="M669.7,223.6c0.9-5.1,1.7-10.4,2.7-15.7c0.4-2.2,0-3.7-1.7-5.3c-3.7-3.5-7.2-7.1-10.8-10.6
					c-0.7-0.7-1.9-1.2-1.5-2.3c0.4-1,1.7-0.9,2.6-1c4.7-0.7,9.3-1.5,14-2c2.8-0.3,4.5-1.6,5.7-4.2c2-4.5,4.3-8.9,6.5-13.3
					c0.3-0.7,0.6-1.5,1.5-1.6c1.1-0.1,1.4,0.9,1.7,1.7c2.3,4.5,4.6,9,6.7,13.5c1.2,2.6,2.8,3.8,5.7,4c4.9,0.4,9.8,1.3,14.6,2
					c0.7,0.1,1.7,0.1,1.9,1c0.3,0.9-0.6,1.4-1.1,1.9c-3.6,3.6-7.2,7.4-11,10.9c-1.9,1.8-2.4,3.7-1.9,6.2c1,4.7,1.7,9.5,2.5,14.3
					c0.1,0.9,0.9,2-0.2,2.7c-0.9,0.6-1.7-0.2-2.4-0.6c-4.3-2.2-8.6-4.3-12.8-6.7c-2.3-1.3-4.3-1.6-6.7-0.2c-4.4,2.5-8.9,4.7-13.4,7
					C671,225.9,669.6,226.4,669.7,223.6z"/>
				<path class="st0" d="M900.2,223.7c0.9-5,1.7-10.2,2.7-15.4c0.5-2.3,0-4-1.7-5.6c-3.7-3.5-7.2-7.1-10.8-10.6
					c-0.7-0.7-1.8-1.3-1.5-2.3c0.3-1.2,1.6-0.9,2.6-1c4.9-0.7,9.8-1.5,14.6-2.1c2.5-0.3,4.1-1.4,5.2-3.8c1.9-4.4,4.2-8.7,6.3-13
					c0.4-0.8,0.8-2.1,1.9-2.1c1.1,0,1.3,1.3,1.8,2.2c2.3,4.5,4.6,9,6.7,13.6c1,2.2,2.6,3,4.8,3.3c5,0.6,10,1.4,15,2.1
					c0.8,0.1,1.9,0,2.2,1.1c0.2,0.9-0.6,1.3-1.2,1.8c-3.5,3.5-6.9,7.1-10.5,10.4c-2.1,1.9-2.9,3.8-2.2,6.7c1.1,4.8,1.7,9.7,2.5,14.6
					c0.1,0.7,0.6,1.6-0.1,2.2c-0.9,0.7-1.7,0-2.4-0.4c-4.3-2.2-8.6-4.3-12.8-6.8c-2.7-1.6-5-1.5-7.6,0.1c-4.2,2.4-8.5,4.5-12.8,6.8
					C901.3,226,900,226.3,900.2,223.7z"/>
				<path class="st0" d="M826.3,206.8c0.1-2.4-1.3-3.7-2.6-5c-3.5-3.3-7-6.7-10.4-10c-0.5-0.5-1.4-1-1.2-1.8c0.2-1.1,1.3-1,2.1-1.1
					c5-0.7,10-1.5,15-2.1c2.4-0.3,4-1.1,5-3.5c2.1-4.7,4.5-9.3,6.8-13.9c0.4-0.8,0.6-1.8,1.7-1.8c1.1,0,1.3,1.1,1.6,1.9
					c2.3,4.5,4.7,9,6.7,13.6c1,2.4,2.5,3.3,4.9,3.6c5,0.6,10,1.4,15,2.1c0.8,0.1,1.9,0.1,2.2,1.1c0.3,1-0.8,1.5-1.4,2.1
					c-3.6,3.6-7.3,7.3-11,10.9c-1.6,1.5-2.1,3-1.7,5.3c1,4.9,1.8,9.9,2.6,14.9c0.2,0.9,0.6,2.1-0.4,2.7c-0.9,0.6-1.7-0.2-2.4-0.6
					c-4.5-2.3-9-4.6-13.4-7.1c-2.2-1.2-4-1.1-6.1,0.1c-4.4,2.5-8.9,4.7-13.4,7c-0.7,0.3-1.4,1-2.1,0.5c-1-0.6-0.4-1.6-0.3-2.4
					C824.4,217.7,825.4,212.1,826.3,206.8z"/>
				<path class="st0" d="M592.8,223.8c0.9-5.2,1.6-10.4,2.7-15.5c0.5-2.3-0.1-4-1.8-5.6c-3.6-3.5-7.2-7.1-10.7-10.6
					c-0.6-0.7-1.9-1.2-1.4-2.3c0.4-1,1.7-0.8,2.6-1c4.8-0.7,9.5-1.5,14.3-2c2.6-0.3,4.1-1.4,5.2-3.8c2-4.3,4.1-8.5,6.3-12.7
					c0.5-1,0.5-2.8,2-2.6c1.3,0.1,1.5,1.7,2.1,2.8c2.1,4.2,4.3,8.4,6.3,12.7c1,2.3,2.6,3.3,5,3.6c5,0.6,10,1.4,15,2.1
					c0.8,0.1,2,0,2.3,1c0.3,1-0.7,1.5-1.3,2.1c-3.6,3.6-7.2,7.3-11,10.9c-1.7,1.6-2.2,3.3-1.8,5.6c1,5.1,1.7,10.2,2.6,15.2
					c0.4,2.4-0.4,2.8-2.4,1.8c-4.7-2.4-9.4-4.8-14-7.4c-1.9-1.1-3.6-1-5.5,0c-4.6,2.5-9.3,4.9-14,7.4
					C593.6,226.1,592.4,226.2,592.8,223.8z"/>
				<path class="st0" d="M746.6,222.4c0.6-3.4,1.2-7.6,2.2-11.6c1-4.1,0.4-7.3-3.2-10.1c-3.4-2.7-6.4-6-9.6-9
					c-0.5-0.5-1.4-1-1.2-1.8c0.3-1.1,1.4-1,2.2-1.1c5-0.7,10-1.5,15-2.1c2.6-0.3,4.4-1.4,5.5-4c1.8-4.1,3.9-8.1,6-12.1
					c0.6-1.1,0.7-2.9,2.2-2.9c1.3,0,1.5,1.7,2,2.8c2,3.9,4.1,7.8,5.8,11.8c1.3,3,3.3,4.3,6.5,4.5c4.6,0.4,9.1,1.2,13.7,1.9
					c0.9,0.1,2.2,0.1,2.4,1.3c0.2,1-0.7,1.6-1.3,2.1c-3.7,3.6-7.4,7.2-11.2,10.7c-1.4,1.3-2,2.7-1.6,4.6c1,4.8,1.8,9.7,2.5,14.6
					c0.2,1.2,1.1,2.9-0.1,3.7c-1.2,0.9-2.4-0.5-3.5-1.1c-4.4-2.3-8.7-4.6-13-7c-1.7-1-3.2-0.8-4.9,0.1c-4.5,2.5-9.1,4.9-13.6,7.3
					C747,226.3,746.5,226,746.6,222.4z"/>
			</g>
		</g>
	</g>
	<g>
		<path class="st1" d="M311.4,149.5l-42.7-45.4V27.3c0-14.5-11.8-26.3-26.3-26.3h-215C12.8,1,1,12.8,1,27.3v215
			c0,14.5,11.8,26.3,26.3,26.3h215c14.5,0,26.3-11.8,26.3-26.3v-83h38.4C312.3,159.4,314.9,153.3,311.4,149.5z"/>
		
			<image style="overflow:visible;" width="3840" height="3840" xlink:href="86B49BB1.png"  transform="matrix(5.489837e-02 0 0 5.489837e-02 29.4426 29.4426)">
		</image>
	</g>
</g>
</svg>
