<svg id="AF" xmlns="http://www.w3.org/2000/svg" viewBox="0 0 552.45 170.05"><defs><style>.cls-1{fill:#1d1e1c;}</style></defs><path class="cls-1" d="M485.7,101.55h0v57.92a7.75,7.75,0,0,0,7.75,7.75h19.62c4.35,0,5.52-3.79,5.43-8.14V100.27c.28-18.37,12.75-32.35,27.7-35.73A7.85,7.85,0,0,0,552.45,57V38.27a7.76,7.76,0,0,0-8.81-7.7C511.18,35.23,486,65.23,485.7,101.55Z"/><path class="cls-1" d="M274.71,115.92l34.05-75.78a7.75,7.75,0,0,1,7.07-4.57h19.54a7.75,7.75,0,0,1,7,11L289,162.71a7.74,7.74,0,0,1-7,4.51h-14.5a7.76,7.76,0,0,1-7-4.51L207,46.55a7.75,7.75,0,0,1,7-11H233.6a7.75,7.75,0,0,1,7.07,4.57Z"/><path class="cls-1" d="M201.73,112.22H112.91c6.3,17.06,20.44,25.05,34.06,25.05,11.36,0,21.2-5.06,28.77-10.66,3.53-2.13,6.56-1.86,9.33,1.6l11.11,13.86c2.77,3.73,2.27,7.2-1,9.86-16.4,13.33-34.07,18.12-48.7,18.12-38.36,0-67.12-32-67.12-70.09,0-37.84,28.51-67.43,64.59-67.43,35.08,0,61.57,28,64.1,72.76C208.29,109.82,205.77,112.22,201.73,112.22Zm-29-26.65a29.84,29.84,0,0,0-29.52-24.25c-15.14,0-27.26,10.13-30,24.25Z"/><path class="cls-1" d="M465.42,112.22H376.6c6.31,17.06,20.44,25.05,34.06,25.05,11.36,0,21.2-5.06,28.77-10.66,3.53-2.13,6.56-1.86,9.34,1.6l11.1,13.86c2.77,3.73,2.27,7.2-1,9.86-16.4,13.33-34.07,18.12-48.7,18.12-38.36,0-67.12-32-67.12-70.09,0-37.84,28.51-67.43,64.59-67.43,35.08,0,61.57,28,64.1,72.76C472,109.82,469.46,112.22,465.42,112.22Zm-29-26.65a29.84,29.84,0,0,0-29.52-24.25c-15.14,0-27.25,10.13-30,24.25Z"/><path class="cls-1" d="M35.29,82.06v-5c0-20.18,12.1-37,28-40.53A7.79,7.79,0,0,0,69.52,29V7.78A7.74,7.74,0,0,0,60.8.07C26.7,4.86.21,37.34,0,76.63H0v82.84a7.75,7.75,0,0,0,7.75,7.75H27.54a7.75,7.75,0,0,0,7.75-7.75V111.92H56.61a7.75,7.75,0,0,0,7.74-7.75V89.81a7.75,7.75,0,0,0-7.74-7.75Z"/></svg>