<?xml version="1.0" encoding="utf-8"?>
<!-- Generator: Adobe Illustrator 28.0.0, SVG Export Plug-In . SVG Version: 6.00 Build 0)  -->
<svg version="1.1" id="Calque_1" xmlns="http://www.w3.org/2000/svg" xmlns:xlink="http://www.w3.org/1999/xlink" x="0px" y="0px"
	 viewBox="0 0 680.5 755.7" style="enable-background:new 0 0 680.5 755.7;" xml:space="preserve">
<style type="text/css">
	.st0{fill:#F0550E;}
	.st1{fill:#F19115;}
	.st2{fill:#230B09;}
	.st3{fill:#29A5B2;}
	.st4{fill:#249196;}
</style>
<g>
	<path class="st0" d="M495.6,85.5c-0.7,4.9-0.2,9,2.1,12.7c5.2,8,10.3,16.1,14.2,24.9c7.9,17.9,13.3,36.3,11.9,56.1
		c-0.5,7-1.5,13.9-2.1,20.9c-1.2,13.1-1.1,26.1,1.7,39c0.9,4.2-0.3,8.1-1,12.1c-2.1,12.3-2.3,24.7-2.1,37.1
		c0.2,15.3,1.5,30.6,0.9,45.9c-1.1,28-0.3,56-0.4,84c-0.1,27.4-0.1,54.8-0.1,82.2c0,3.2-0.1,6.3-0.8,9.4c-0.6,2.6-2.1,3.7-4.6,3
		c-8.4-2.2-16.8-4.3-23.9-9.7c-4.7-3.5-7.2-8.4-7.2-14.2c0-10.2-0.2-20.5,0.5-30.7c0-0.4,0-0.8,0.1-1.2c2.5-8.4,1.8-17,1.8-25.6
		c0-98.5,0.1-197-0.1-295.4c0-19-1.8-37.9-5.8-56.5c-0.7-3-1.2-6-0.5-9.2c0.7-2.8,1.9-3.8,4.8-3.5c1.8,0.2,3.4,0.9,4.9,1.7
		c5.1,2.6,10.5,3.7,16.2,2.5c3.2-0.7,5.4,0.8,7.1,3.5c5.3,8.8,5.4,17.8,1.5,27.1c-0.3,0.8-0.7,1.5-1,2.3c-1.5,3.4-1.9,3.6-5,1.2
		c-3-2.3-5-5.3-6.6-8.6C500.4,92.9,498.8,89.1,495.6,85.5z"/>
	<path class="st1" d="M10.1,265.4c3.8,0.5,8,1.2,12.1,1.7c3.9,0.5,7.8,0.8,11.7,0.8c11.2,0,22.3,0.1,33.4,1.1
		c11.7,1.1,23.5,0.9,35.2,1c12.6,0.1,25.1,0.8,37.6,1.8c7.2,0.5,14.3-0.5,21.5-0.3c5.7,0.2,11.5,0.1,17.2,0.8
		c3.7,0.5,7.3-0.3,10.8-1.4c7.6-2.4,15.2-3.8,23-1.2c2.9,0.9,5.7-0.6,8.6-0.9c6.2-0.8,12.3-0.6,18.5-0.2c4.5,0.3,9,0,13.4-0.4
		c2.2-0.2,4.3-0.4,6.5-0.4c52.2,0,104.3,0,156.5,0c7.1,0,14.1-0.4,21.2-0.3c2.3,0,4.5,0.3,6.7,0.7c7.1,1.2,11.9,5.3,14.8,11.8
		c1.5,3.4,3,6.9,4.4,10.3c1.3,3.3,0.4,5.4-3,6.3c-6.5,1.8-13.1,3.5-19.8,3.7c-5,0.2-10-0.6-15-0.7c-10.4-0.3-20.8,0-31.2,0.8
		c-7.3,0.5-14.4-0.8-21.6-1.6c-7.6-0.8-15-2.1-22.8-1.1c-9.3,1.2-18.8,0.4-28.2-0.4c-11.5-0.9-22.9-0.7-34.4-0.5
		c-15.7,0.3-31.5,0.5-47.2-0.1c-13.4-0.5-26.5,1.6-39.8,2.9c-5.7,0.6-11.3,2.1-17.1,1.8c-4.2-0.3-8.5-0.3-12.7-0.6
		c-7.6-0.5-15.2-0.4-22.7-0.3c-10,0.1-19.9-1.4-29.8-2.7c-3.7-0.5-7.5-0.7-11.2-0.8c-7.8-0.3-15.7,0.1-23.5-0.4
		c-7.1-0.4-14.1,0.7-21.2,0c-4.6-0.5-9.3-0.8-13.8-1.8c-2.6-0.6-5.3-0.8-7.9,0.3c-9,3.8-15.7,0.4-21.6-6.4c-1.6-1.9-3.1-3.9-4.6-5.9
		c-1.2-1.6-2.8-2.5-4.8-2.9c-3.5-0.8-7.4-5.9-7.3-9.5c0-2.2,1.3-3.6,3.3-4.2C6.7,265.7,8.3,265.4,10.1,265.4z"/>
	<path class="st2" d="M560.7,569.2c-1.5,1.3-3,1.5-4.3,2c-7.7,2.7-14.8,6.5-20.4,12.7c-0.8,0.9-1.7,1.8-2.4,2.9
		c-2.1,3.6-5.4,5.1-9.4,5.9c-7.1,1.4-14.1,1.9-21.3,1.2c-7-0.6-14.2-0.2-21.2-0.3c-6.9-0.1-13.8-0.6-20.6-1.7
		c-2.9-0.4-5.6,0.6-8.4,0.9c-6.4,0.9-12.7,0-18.9-0.9c-9.5-1.4-19-2.5-28.5-3.2c-12.5-1-24.4-4.3-35.6-9.9
		c-4.2-2.1-7.5-5.8-11.3-8.5c-4.7-3.4-9.4-6.9-13.6-10.9c-6.8-6.3-10.7-14.6-15.1-22.5c-7.8-13.9-10.7-29.1-11.5-44.8
		c-0.5-9.9-1.1-19.8-3.3-29.5c-1.4-6.5-0.2-12.9-0.1-19.4c0.2-8.1,0.7-16.1,1.1-24.2c0.6-11.6,0.6-23.3,1.1-35
		c0.3-8.3-0.4-16.7,0.7-24.9c0.8-5.5,2-11,3.3-16.4c1.3-5.3,5.5-7.4,11.6-6.1c5.8,1.2,10.1,4.2,11.2,10.5c0.6,3.4,1.7,6.6,2.3,10
		c0.8,5,0.2,9.8-0.9,14.6c-1.3,5.5-1.5,11.1-1.5,16.6c0,15.7-0.4,31.3-0.8,47c-0.3,10.1-0.6,20.1,0.2,30.2c0.3,3.6,0.7,7.1,1.4,10.6
		c1.5,7,1.6,14,1.6,21.1c-0.1,19.4,4.7,37.5,14.9,54.2c3.7,6.1,9,9.4,15.6,11.6c10.2,3.2,20.4,5.3,31.1,5
		c11.2-0.3,22.5,0.2,33.5-2.5c2.3-0.6,4.6,0.1,6.9,0.4c9.1,1,18.3,0.9,27.4,0.8c12.3-0.2,24.6,0.3,37,0.7
		c12.2,0.4,24.5,0.5,36.7,0.5C553,567.9,556.7,568.2,560.7,569.2z"/>
	<path class="st1" d="M349.3,243c-11.1,0.4-22.1,0-33.2,0.1c-5.1,0-10.1,0.7-15.1,2c-1.5,0.4-3,0.7-4.4,0.3
		c-14.8-3.7-29.5-2.3-44.4-0.2c-8.6,1.2-17.3,0.3-26,0.4c-15,0.1-30,0-45,0.1c-4.2,0-8.5,0.5-12.7,0.8c-5,0.4-10-0.2-15-0.5
		c-8.3-0.6-16.5-0.8-24.5,1.5c-1.2,0.3-2.5,0.4-3.7,0.1c-9.5-2.7-19.1-2.2-28.7-0.2c-2.4,0.5-4.7,0.3-6.9-0.2
		c-4.7-1.1-9.2-1.1-13.8,0c-3.9,0.9-7.8,0.4-11.6-0.5c-4-0.9-8-1-12.1-0.4c-4.8,0.7-9.6,1-14.4,1c-9.4,0-18.8,0.2-28.2,1
		c-2.3,0.2-4.5,0.1-6.6-1c-0.9-0.4-1.7-1-1.1-2.1c2.8-5.5,2.8-11.6,4.4-17.4c1.8-6.3,4.1-8.1,10.7-8.3c11.5-0.3,22.9,1.1,34.4,1.9
		c6.8,0.5,13.7,0.4,20.5,0c7.2-0.4,14.3-0.2,21.5-0.4c5.6-0.1,11.1-0.6,16.6-1.5c4.7-0.8,9.5-0.7,14.2-0.1
		c7.6,0.9,15.3,0.1,22.9,0.1c26.9-0.1,53.8,0,80.7-0.2c5.7,0,11.5-0.5,17.1-1.7c3.9-0.8,7.8-0.2,11.7,0.1c6,0.4,12-0.1,17.9-0.6
		c11.2-0.8,22.3-2.6,33.5-3.3c7-0.4,13.9-0.5,20.9,0c4.9,0.3,9.6-1.3,14.3-2.1c6.6-1.1,11.7,0.9,15.3,6.5c3.6,5.6,5.7,11.9,7.3,18.3
		c1,4.2-0.8,6.3-5.2,6.6c-0.2,0-0.3,0-0.5,0C356.5,243,352.9,243,349.3,243z"/>
	<path class="st1" d="M120.2,186.6c-18.5,0-37,0.1-55.5,0c-8-0.1-16-0.6-23.9-0.9c-7.1-0.2-14.1,0.4-21.2,0.8
		c-5.4,0.2-10.8-0.4-16.1-1.7c-2.7-0.7-3.8-2.8-3.4-5.5c0.2-1.1,0.4-2.1,0.6-3.2c0.8-3.3,1.8-4.1,5.2-4.1c2,0,4.3,0.6,5.5-1.5
		c1.1-2.1-0.7-3.7-1.7-5.4c-2.2-3.6-1.3-5.9,2.7-7.1c2.4-0.7,5-0.6,7.4-0.4c13,1.3,26.1,1,39.2,0.8c7.9-0.1,15.8-0.4,23.7-0.3
		c9.6,0.2,19.1,1.2,28.6,1.7c8.3,0.5,16.6,0.6,24.9-0.1c8-0.7,16.1-1.1,24.2-1.3c13.5-0.3,27-0.3,40.4-1.5
		c7.4-0.7,14.7-1.1,22.1,0.5c2.8,0.6,5.8,0.2,8.7-0.4c6.4-1.4,13-2.1,19.6-2c10.7,0.1,21.3,0.1,32,0.1c6.4,0,9.2,2.1,10.6,8.3
		c1.4,5.9,2.5,11.9,3.7,17.9c0.6,3.3-0.4,4.5-3.8,4.9c-7.2,0.9-14.5,0.4-21.7,0.5c-13.7,0.2-27.3,0.2-41,0.6
		c-9.4,0.3-18.8,1.1-28.1,2.3c-2.9,0.4-5.8-0.3-8.7-0.9c-8.5-1.6-17.2-2.1-25.9-2.1C152.4,186.6,136.3,186.6,120.2,186.6z"/>
	<path class="st0" d="M572,266.1c-0.3,17.3,1.5,34.6,1.4,51.9c-0.1,8.6-1.3,17.3-1,25.9c0.6,13.6,1.2,27.1,1.3,40.7
		c0.1,9.4-0.6,18.8-1.4,28.2c-0.4,4.2-0.6,8.5-0.8,12.7c-0.1,2.9-0.7,5.6-2,8.2c-2.1,4.2-4.7,8-7.5,11.8c-1.9,2.6-3.8,3.1-7,2.2
		c-0.6-0.2-1.3-0.4-1.9-0.5c-1.6-0.2-2.7,0.5-3.3,2.1c-0.6,1.6,0.1,2.8,1.5,3.6c1,0.5,2.2,0.8,3.3,1.2c3.2,1.4,4.3,3.8,3.2,7.1
		c-0.2,0.7-0.6,1.4-0.8,2.1c-1.1,3-0.4,4.3,2.7,5c2.8,0.7,3.6,1.6,3.5,4.5c-0.2,5.8-0.1,11.7,1.6,17.3c1.2,4,3.1,7.6,6.1,10.4
		c1.5,1.4,2.2,3,2.3,5.1c0.4,10.8,0.5,21.6,0.4,32.5c-0.1,6.8-1.9,8.1-8.5,6.4c-5-1.3-10-2.5-15-3.8c-5.2-1.3-7.6-4.4-7.5-9.7
		c0.2-9.4,0.8-18.8,0.8-28.2c0.2-28.7,0-57.5,0.2-86.2c0.1-10.1,0.9-20.3,1.7-30.4c0.8-11.1,0.9-22.3-1.4-33.3
		c-1.1-5.2-0.8-10.5,0.1-15.7c1.9-11.4,1.6-22.9,1.5-34.4c-0.2-20.1-2-40.1-2.2-60.1c-0.1-9.7-0.1-19.3-0.3-29c0-1.1,0-2.2,0.6-3.2
		c0.7-1.2,1.8-2,3.3-1.8c2,0.2,6.2,4.6,6.2,6.6c0,4.1,1.6,7.7,4.1,10.8c3,3.8,5.5,7.9,7.8,12.2c1,1.9,2.3,3.6,3.8,4.9
		c2.5,2.1,3.4,4.8,3.4,8C572,256.1,572,261.1,572,266.1z"/>
	<path class="st2" d="M504.1,651.2c-13.9,0.1-27.8,0.8-41.7,0.4c-10.9-0.3-21.8-0.3-32.6-1.2c-14.8-1.1-29.6-1.9-44.1-5.3
		c-15-3.4-29.5-7.9-42.3-16.7c-8.6-5.9-16.7-12.6-24.6-19.5c-6-5.2-11.4-10.9-16.2-17.2c-3.5-4.6-6.4-9.6-8.8-14.9
		c-1.1-2.4-2.4-4.5-3.9-6.7c-3.7-5.7-4-11.6-1.1-17.7c1.7-3.5,2.7-7.3,3.5-11.1c0.7-3.6,2.1-7,4-10.2c0.9-1.6,1.8-1.5,2.7,0
		c2.3,4,3.5,8.3,4.4,12.9c2.1,10.3,6.2,20,11.5,29c6.1,10.3,13.5,19.8,21,29c4.8,5.8,11.6,8.4,18.2,11.3c6.8,3,13.7,5.5,20.9,7.2
		c2.1,0.5,4.3,0.7,6.4,0.8c9.9,0.2,19.8-0.8,29.7-0.5c10.8,0.4,21.5,1.2,32.3,1.9c4.4,0.3,8.8,0.3,13.2,0.5
		c20.6,1,41.3,0.5,61.9,0.6c4.4,0,6.1,1.7,6.1,6.3c0,1.1,0.2,2.2-0.1,3.2c-0.9,4.1-0.2,8.3-0.9,12.4c-0.6,3.4-2.5,5.4-6,5.4
		C513.1,651.2,508.6,651.2,504.1,651.2z"/>
	<path class="st1" d="M130,135.5c-11,0.7-21.9-0.7-32.9-1.3c-7.9-0.4-15.8,0.3-23.7,0.7c-7.4,0.3-14.8,0.5-22.2,0
		c-7.2-0.5-14.4-1.1-21.7,0c-2.1,0.3-3.9,0-4.9-2c-1-2.1-0.3-3.9,1.4-5.4c2.4-2.1,5.1-3.7,7.1-6.3c2-2.6,3.4-5.3,4.5-8.3
		c1-2.7,2.9-4.1,5.7-4.5c4.6-0.6,9.2-1.4,13.8-2.2c1.4-0.2,2.8-0.1,4.2,0.1c4.7,0.7,9.4,1.4,14.1,2.1c3.4,0.5,6.6-0.5,9.9-1
		c13-1.8,26.1-1.6,39.1-0.9c6,0.3,12-0.4,18-0.4c12.1,0.1,24.2-0.3,36.2,0.1c11.5,0.4,23-0.1,34.4-0.4c7.3-0.1,14.6-0.4,21.9,1
		c8.1,1.5,13.3,6.1,16.1,13.7c0.9,2.4,1.8,4.9,2.4,7.4c1,4-1.1,6.3-5.2,6c-6.7-0.5-13.5-0.1-20.2-0.1c-13.8,0-27.7-0.2-41.5,0.1
		c-12.4,0.2-24.8,1.1-37.1,1.8C143,135.8,136.5,135.5,130,135.5z"/>
	<path class="st3" d="M432.3,156.4c0-5.7,0-11.5,0-17.2c0-1.7,0-3.3,0.4-5c1.2-4.8,1.3-9.5,0.2-14.5c-1.8-8.8-0.3-17.7,0.6-26.6
		c0.6-5.9,1.7-11.7,0.9-17.7c-0.2-1.4,0.2-3,0.5-4.4c0.4-1.8,1.6-2.7,3.4-2.6c1.2,0.1,2.5,0.1,3.7,0.4c5.8,1.5,11.5,3.3,17.4,4.3
		c3.7,0.6,5.4,3.7,5.4,8.5c0,9.9-0.1,19.8-0.1,29.7c0,14.1,0.3,28.1,0,42.2c-0.2,9.2-1.1,18.4-1.7,27.7c-0.2,3.8-0.6,7.6-0.7,11.5
		c-0.2,9.1-0.2,18.2-0.6,27.2c-0.3,6.1-2.8,11.6-6.7,16.4c-2.3,2.7-5.6,2.5-8.8,2.4c-7.6-0.3-12.5-4.2-13.8-11.6
		c-1.6-9-2.8-18.1-2.7-27.3c0-4.1,0.3-8.2,1-12.2c1.3-7,1.6-14,1.5-21.1C432.2,163.1,432.3,159.8,432.3,156.4
		C432.3,156.4,432.3,156.4,432.3,156.4z"/>
	<path class="st2" d="M163.5,65.2c-11,0.1-22,0.2-33-0.6c-17.3-1.1-34.4-3.5-51.1-8.6c-1.8-0.6-2.3-1.2-1-2.9
		c3.3-4.3,7.1-7.9,12.4-9.6c3.6-1.2,6.7-3.1,9-6.4c3.4-4.7,8.6-5,13.6-4.1c11.5,2,22.9,4,34.6,4.7c6.2,0.4,12.5,0.4,18.7,0
		c9.4-0.6,18.8-0.7,28.2-0.8c17.7-0.2,34.9-3.1,51.8-8.1c9.9-2.9,20-5,30-7.4c1.2-0.3,2.8-1.5,3.7-0.5c1,1.1-0.1,2.7-0.6,3.9
		c-1.2,3.4-3.7,5.9-6.4,8.2c-3.4,2.9-3.3,4.8,0.7,6.9c1.5,0.8,3.2,1.4,4.8,2.1c0.6,0.3,1.4,0.4,1.5,1.2c0.1,1-1,1-1.6,1.3
		c-8.2,3.1-16.4,6-24.8,8.5c-12.8,3.8-25.7,6.9-38.8,9.1c-14.9,2.4-29.9,3.2-45,3C168,65.2,165.7,65.2,163.5,65.2z"/>
	<path class="st2" d="M474.6,701.6c-6.1-0.5-12.4-1.4-18.7-1.4c-17.8-0.2-35.7,0.2-53.5-0.2c-12.8-0.3-25.7,0.1-38.4-1.8
		c-11.5-1.8-22.9-4.4-33.8-8.6c-5.1-2-8.5-5.7-9.6-11.3c-0.8-4.3-2.4-8.5-2.7-12.9c-0.1-2.3,0.4-2.9,2.4-2.2
		c10.4,3.4,21.2,5.1,32.1,6.1c13.8,1.3,27.8,2.1,41.7,1.6c7-0.3,14-0.5,20.9,0.8c13.6,2.7,27.2,3.4,41,3.3c7.7,0,15.3-0.2,23,0.1
		c5,0.2,10-0.1,14.9-0.1c1.9,0,2.7,0.7,2.9,2.5c0.3,2.2-0.2,4.3-0.6,6.4c-0.5,2.4-1.4,4.6-1.9,7c-1.6,6.9-6.6,9.6-13.1,10.3
		C479.1,701.4,476.9,701.5,474.6,701.6z"/>
	<path class="st3" d="M380.9,187.5c-0.3-7.4,0.5-14.8,1.9-22.1c1.1-6.1,1-12.3-0.6-18.3c-1.5-5.6-1.7-11.1-0.7-16.8
		c2.4-14.2,2.1-28.5,1.5-42.8c-0.3-6.5-0.4-13,0.2-19.5c0.3-3.5,0.1-7,0.2-10.5c0-6.3,4.8-9.1,10.5-6.1c1.6,0.8,3,2,4.4,3.3
		c2.5,2.2,5,4.4,8.1,5.8c2.7,1.2,3.8,3.3,3.7,6.2c-0.1,4.3-1.3,8.4-1.7,12.6c-1,10-1,20.1-0.5,30.2c0.3,5,0.4,10-0.1,15
		c-0.2,1.8-0.1,3.7-0.2,5.5c0,13.4,0,26.8,0,40.2c0,9.2-1.7,18.2-2.8,27.3c-0.7,5.7-1.5,11.4-1.7,17.1c-0.2,6-2.4,9.3-6.7,10
		c-4.9,0.8-10.5-2.3-12.2-7.2c-1.4-4-2.3-8.2-2.7-12.4c-0.3-2.9-0.1-5.8-0.4-8.7C380.6,193.3,380.9,190.4,380.9,187.5z"/>
	<path class="st3" d="M430.7,411.6c-11.2,0-22.5,0.1-33.7,0c-5.8-0.1-11.8-0.6-17-3.4c-7.3-3.9-11.2-10.5-12.1-18.7
		c-0.4-3.9,2.3-6.5,6.2-7c3.4-0.4,6.8-0.1,10.2,0c6.7,0.1,13.5-0.1,20.2-0.3c9.4-0.3,18.8,0.4,28.1,2.2c3.9,0.8,7.8-0.3,11.6-1.2
		c5.2-1.3,10.4-1.4,15.5,0.5c7.9,3,11.9,9.1,13.2,17.1c0.4,2.2,0.9,4.4,0.2,6.7c-0.6,2-1.8,3.2-3.7,3.6c-1.7,0.4-3.4,0.6-5.2,0.6
		C453,411.6,441.9,411.6,430.7,411.6z"/>
	<path class="st3" d="M394,329.2c2.2,0,4.4,0.3,6.5,0.8c7.5,2,15,1.6,22.5,0.3c5.9-1,11.8,0,17.7,0.3c3.2,0.2,6.5,0.4,9.7,0.3
		c5.3-0.1,9.1,2,11.3,7c1.4,3.2,3,6.3,4.5,9.5c1.2,2.5,1.1,5.2,0.6,7.8c-0.7,3.4-3.6,5.5-7.4,5.6c-3.6,0.2-7.1-0.6-10.7-0.5
		c-9.3,0.3-18.6,0.7-27.9,0.4c-8.2-0.3-16.4-1.2-24.7-0.8c-3.8,0.2-7.4,0.4-11.1-0.5c-10-2.4-17.6-11.8-17.6-21.9
		c0-3.5,1.5-5.6,4.9-6.1C379.5,330.7,386.8,330,394,329.2z"/>
	<path class="st4" d="M423.8,469.6c-10.8,0-21.7,0.1-32.5,0c-5.6-0.1-11.3-0.4-16.4-3.6c-7.3-4.6-9.8-11.7-10-19.8
		c-0.1-3.2,2-5.3,5.3-5.6c10.8-0.9,21.6-1.6,32.4-0.8c3.2,0.2,6.3,0.2,9.5,0.2c11.2,0,22.5,0.2,33.7-0.1c6.2-0.1,10.4,2.3,13.3,7.8
		c2.3,4.4,4.3,8.8,5.1,13.7c1,6-0.6,8-6.7,8.1c-2.9,0.1-5.8,0.1-8.7,0.1C440.5,469.6,432.1,469.6,423.8,469.6
		C423.8,469.6,423.8,469.6,423.8,469.6z"/>
	<path class="st2" d="M406.8,755.7c-6.9-0.2-15.6,0.1-24.4-0.4c-8.2-0.5-16.5,0.7-24.7,0.4c-4.2-0.1-8.9-3.5-10.3-7.5
		c-0.6-1.8,0.1-3.4,1.4-4.5c3.2-2.8,3.2-6.1,1.9-9.8c-0.7-1.9-1.3-3.8-1.9-5.7c-0.5-1.6-0.2-2.5,1.7-2.2c13.6,2.3,27.3,2.6,41,3
		c6.8,0.2,13.6,0.3,20.5,0.4c14.3,0.4,28.6,0.8,42.8,2.4c6.1,0.7,6.6,1.3,3.1,6.1c-6.3,8.7-14.2,15.4-25.2,17.3
		c-2.5,0.4-5.1,0.3-7.7,0.3C419.5,755.7,414.1,755.7,406.8,755.7z"/>
	<path class="st3" d="M351.8,96.2c0.2,9.2,0.3,15.6,0.4,22c0.2,8.2-0.6,16.5-1.4,24.7c-0.7,6.5-1.2,13.1-1.8,19.6c0,0.1,0,0.2,0,0.2
		c-0.7,5.6-3.1,8.7-7.1,9.3c-6.2,0.9-11.2-1.7-13.3-6.9c-2-4.9-2.3-10.2-3.2-15.4c-1.7-9.7-2-19.5-0.7-29.3c0.7-5.6-0.3-11.1-1-16.7
		c-1.3-10.6,0.2-21.1,1.9-31.5c0.4-2.3,1.8-3.8,4.2-3.3c5.2,1.1,10.5,1.6,15.6,3.2c3.9,1.2,5.6,3.8,6.1,7.6
		C352.3,86.2,351.6,92.6,351.8,96.2z"/>
	<path class="st2" d="M294.5,368.1c0.6,12.7-0.5,25.3-1.9,37.8c-0.3,2.7-0.1,5.5-0.1,8.2c0,11.9,0,23.8,0,35.7
		c0,0.9,0.5,2.1-0.5,2.5c-1.1,0.4-1.4-1-1.8-1.7c-5.5-8.9-12.3-16.5-20.2-23.3c-3.4-3-5.2-6.7-5.3-11.2c0-7.8,0.7-15.6,1.2-23.4
		c0.6-8.9,1.6-17.7,2.7-26.5c0.9-6.9,1.8-13.9,3-20.7c1.2-6.4,3.3-7.9,9.8-7.7c4.7,0.1,8.8,1.8,11.5,5.9c0.9,1.3,1.4,2.8,1.4,4.4
		C294.5,354.8,294.5,361.5,294.5,368.1z"/>
	<path class="st4" d="M414,528c-0.2,0-0.3,0-0.5,0c-7.4-1.2-14.8-1.7-22.3-0.1c-3.6,0.7-7.3-0.8-10.5-2.5c-6.4-3.4-8.2-8.8-5.6-15.8
		c3.2-8.4,10.6-13.5,19.7-13.6c6.9-0.1,13.5-1.8,20.3-2.2c10.6-0.7,21.1-1.1,31.5,1.8c4.3,1.2,4.9,2.2,5.4,6.6
		c0.6,5.7,0.1,11.1-2.1,16.4c-1.9,4.6-5.3,7.4-10.3,7.3c-7.3-0.1-14.4,1.1-21.6,1.9C416.7,528,415.3,528,414,528
		C414,528.1,414,528,414,528z"/>
	<path class="st0" d="M633.4,318.7c0.1,12.4,0.1,24.8-1,37.2c-0.4,4.8-1.1,9.6-1.6,14.4c-0.2,2-1.3,3.4-3,4.4
		c-6.8,4.4-13.6,8.7-20.4,13.1c-1.6,1-2.2,0.9-2.3-1.2c-0.3-10.2,0.7-20.3,1.7-30.4c0.9-8.7,0.4-17.5,0.1-26.2
		c-0.2-5.9-0.3-11.8,0-17.7c0.3-5.6,0.2-11.2,0.2-16.7c0-2.4,0.7-3.3,3.1-3.1c4.6,0.4,9.1-0.2,13.3-2.4c0.9-0.5,2-0.8,3.1-1
		c3-0.6,5,0.5,6.1,3.4c0.5,1.4,0.6,2.8,0.6,4.2C633.4,304,633.4,311.4,633.4,318.7z"/>
	<path class="st3" d="M60.2,331.9c6.9,0.5,13.2-0.7,19.5-1.5c5.6-0.7,11.1-0.2,16.5,1.2c3.7,0.9,7.6,0.2,11.5,0.3
		c2.7,0,5.5-0.2,8.2,0.5c4.5,1.2,7.1,4.2,8.6,8.3c0.9,2.5,0.2,4.1-2.1,5.4c-1.9,1.1-4.1,1.4-6.2,1.9c-4.4,1.1-8.8,2.2-12.9,4.4
		c-8.6,4.5-16.3,1.6-23.6-3.4c-5.5-3.8-10.4-8.3-15.3-12.8C63.1,335.1,61.4,334.2,60.2,331.9z"/>
	<path class="st3" d="M294.5,84.7c0.1,1.9-0.2,4-0.8,6.1c-1.4,5.1-2.8,10.3-4.3,15.4c-1.3,4.4-4.4,6.3-9,5.5
		c-7.2-1.2-11.4-6-12.1-13.3c-0.6-6.1-0.8-12.1,0.1-18.2c0.8-5.7,3.4-7.7,9.1-7.8c3,0,5.8,0.5,8.6,1.2
		C292.1,74.9,294.5,78.1,294.5,84.7z"/>
	<path class="st0" d="M657.3,315.8c-0.3-7.4,0.4-14.8-1.1-22.1c-1.6-8-1.1-8.6,6.8-10.4c3.7-0.8,7.2-2.1,10.5-4
		c4.6-2.7,6.9-1.3,7,3.9c0.2,12.1-4.1,22.8-10.2,32.9c-3.5,5.8-7,11.7-10.5,17.6c-0.3,0.6-0.5,1.5-1.3,1.4c-1-0.1-0.7-1.2-0.8-1.8
		C656.8,327.4,657.5,321.6,657.3,315.8z"/>
	<path class="st2" d="M183.2,15.1c-4.2,0.1-7.3-0.4-10.4-0.9c-1.8-0.3-2.1-1-0.7-2.4c3.7-3.7,7.9-5.9,13.2-6.2
		c7.7-0.5,15.3-2.5,22.8-4c4.1-0.8,7.9,0.6,11.9,0.9c4.8,0.4,9.3-0.2,13.7-2c0.3-0.1,0.6-0.3,0.9-0.4c1.1-0.4,2,0,2.4,1.1
		c0.4,1.2-0.5,1.6-1.4,1.9c-4.9,1.4-9.8,2.7-14.7,4.1c-4.1,1.2-8.1,2.7-12.1,3.7C200,12.8,191.3,15.2,183.2,15.1z"/>
	<path class="st2" d="M222.6,333.9c5.7-0.1,9,3,10.2,9.3c0.4,2.4,0.5,5,0.5,7.4c0,2-0.4,4-2.8,4.5c-2.4,0.4-4.4-0.9-5-2.9
		c-1.9-5.5-5.2-10.2-8.5-14.9c-1-1.5-0.6-2.2,1.1-2.6C219.7,334.2,221.3,333.7,222.6,333.9z"/>
	<path class="st2" d="M165.9,340.3c1.5,0,2.6,0,2.9,1c0.4,1.2-0.7,1.5-1.5,2c-1.1,0.7-2.2,1.2-3.3,1.8c-0.7,0.4-1.5,0.6-2.1-0.1
		c-0.7-0.7-0.3-1.6,0.1-2.3C163.1,341.1,164.7,340.4,165.9,340.3z"/>
</g>
</svg>
