<?xml version="1.0" encoding="UTF-8"?>
<svg id="Calque_1" data-name="Calque 1" xmlns="http://www.w3.org/2000/svg" viewBox="0 0 800 477">
  <defs>
    <style>
      .cls-1 {
        stroke-width: 0px;
      }
    </style>
  </defs>
  <g id="g12">
    <g id="g18">
      <path id="path20" class="cls-1" d="m685.79,232.58v13.26h9.32v13.15c.03,1.18-.04,2.44-.24,3.46-.37,2.45-2.7,6.63-9.31,6.63s-8.86-4.18-9.26-6.63c-.17-1.01-.24-2.28-.24-3.46v-41.55c0-1.47.1-3.08.41-4.3.45-2.21,2.41-6.58,9.04-6.58,6.95,0,8.69,4.6,9.09,6.58.26,1.31.28,3.51.28,3.51v5.05h22.89v-2.98s.1-3.11-.17-6.02c-1.72-17.05-15.77-22.45-31.88-22.45s-29.91,5.45-31.91,22.45c-.18,1.55-.46,4.35-.46,6.02v38.22c0,1.66.05,2.95.36,6,1.49,16.58,15.87,22.46,31.94,22.46s30.45-5.88,31.97-22.46c.27-3.04.3-4.33.33-6v-24.36h-32.16Zm-157.86-39.88h-22.99v67.25c.04,1.17,0,2.49-.2,3.45-.48,2.26-2.39,6.6-8.74,6.6s-8.22-4.34-8.67-6.6c-.23-.97-.26-2.28-.23-3.45v-67.25h-22.98v65.16c-.03,1.68.1,5.11.2,6.01,1.59,16.98,14.97,22.49,31.68,22.49s30.12-5.51,31.73-22.49c.13-.9.29-4.33.19-6.01v-65.16Zm-211.24,0l-11.47,71.06-11.46-71.06h-37.09l-1.97,90.91h22.72l.62-84.15,15.63,84.15h23.05l15.65-84.15.62,84.15h22.78l-2.03-90.91h-37.04Zm-137.31,0l-16.84,90.91h24.56l12.69-84.15,12.38,84.15h24.39l-16.77-90.91h-40.41Zm428.9,73.19l-21.41-73.19h-33.73v89.96h22.32l-1.3-75.53,22.99,75.53h32.35v-89.96h-22.46l1.24,73.19Zm-206.42-49.53c-.4-1.8-.29-3.7-.08-4.7.65-2.91,2.61-6.08,8.24-6.08,5.25,0,8.33,3.27,8.33,8.19v5.56h22.41v-6.34c0-19.59-17.56-22.66-30.27-22.66-16.01,0-29.09,5.28-31.48,20.02-.63,4.01-.79,7.57.22,12.11,3.89,18.38,35.89,23.71,40.53,35.33.82,2.2.58,5.01.17,6.66-.7,3.02-2.73,6.07-8.76,6.07-5.66,0-9.06-3.25-9.06-8.15v-8.72h-24.13v6.93c0,20.09,15.74,26.16,32.69,26.16s29.65-5.55,31.8-20.59c1.03-7.77.25-12.83-.16-14.74-3.76-18.85-37.86-24.52-40.44-35.04m-295.64-.22c-.44-1.83-.34-3.77-.09-4.78.62-2.9,2.59-6.13,8.32-6.13,5.32,0,8.45,3.3,8.45,8.26v5.63h22.67v-6.39c0-19.78-17.83-22.93-30.68-22.93-16.15,0-29.34,5.36-31.75,20.2-.66,4.08-.77,7.66.18,12.25,3.94,18.59,36.24,23.96,40.94,35.72.88,2.19.61,4.99.18,6.71-.75,3.06-2.8,6.14-8.88,6.14-5.68,0-9.08-3.31-9.08-8.28l-.03-8.75h-24.39v6.95c0,20.32,15.96,26.44,33.05,26.44s29.91-5.6,32.11-20.81c1.09-7.84.27-12.95-.1-14.88-3.84-19.08-38.31-24.73-40.9-35.37"/>
    </g>
  </g>
</svg>