<?xml version="1.0" encoding="UTF-8"?>
<svg id="Calque_1" data-name="Calque 1" xmlns="http://www.w3.org/2000/svg" viewBox="0 0 800 477">
  <defs>
    <style>
      .cls-1 {
        fill: #0f0b0b;
        stroke-width: 0px;
      }
    </style>
  </defs>
  <path id="path4" class="cls-1" d="m277.51,226c-3.01,4.08-8.06,11.18-11.13,15.32-1.56,2.11-4.37,5.93,4.96,5.93h49.12s7.92-10.77,14.55-19.78c9.03-12.25.78-37.75-31.49-37.75h-127.1l-22.04,29.94h120.11c6.06,0,5.98,2.31,3.02,6.33Zm-36.08,28.64c-9.33,0-6.52-3.83-4.96-5.94,3.07-4.14,8.2-11.17,11.21-15.25,2.97-4.02,3.05-6.33-3.03-6.33h-54.93l-44.26,60.15h107.94c35.65,0,55.5-24.25,61.62-32.63,0,0-63.72,0-73.59,0Zm70.21,32.63h63.32l24-32.64h-63.31s-24.01,32.64-24.01,32.64Zm163.37-97.55l-24.29,32.99h-28.26l24.27-32.99h-63.3l-42.35,57.53h154.87l42.34-57.53h-63.29Zm-71.79,97.55h63.3l24.02-32.63h-63.3s-24.02,32.63-24.02,32.63Zm-348.11-19.76v6.93h88.18l5.09-6.93H55.11Zm102.76-12.87H55.11v6.92h97.65l5.11-6.92Zm-102.76,32.63h78.74l5.07-6.89H55.11v6.89Zm596.85-12.83h92.92v-6.93h-87.82l-5.1,6.93Zm-9.44,12.83h102.36v-6.89h-97.3l-5.07,6.89Zm24-32.63l-5.09,6.93h83.45v-6.93h-78.36Zm-82.91-7.39l42.34-57.53h-67.04s-42.38,57.53-42.38,57.53h67.07Zm-72.5,7.39s-4.63,6.32-6.88,9.37c-7.95,10.74-.92,23.27,25.02,23.27h101.66l24.02-32.63h-143.82Z"/>
</svg>