<?xml version="1.0" encoding="UTF-8"?>
<svg id="Calque_1" data-name="Calque 1" xmlns="http://www.w3.org/2000/svg" viewBox="0 0 800 477">
  <defs>
    <style>
      .cls-1, .cls-2 {
        fill: #1b1b1c;
        stroke-width: 0px;
      }

      .cls-2 {
        fill-rule: evenodd;
      }
    </style>
  </defs>
  <g id="_レイヤー_1-2" data-name=" レイヤー 1-2">
    <g id="g24">
      <path id="path6" class="cls-2" d="m159.21,171.24c-6.42,0-12.75,1.39-17.22,3.23-4.47-1.84-10.8-3.23-17.22-3.23-28.31,0-53.87,26.78-53.87,63.51,0,40.05,32.72,71.01,71.09,71.01s71.09-30.96,71.09-71.01c0-36.73-25.56-63.51-53.87-63.51h0Zm-17.22,21.81c5.46,3.25,12.65,12.65,12.65,23.26,0,7.78-5.13,13.91-12.65,13.91s-12.65-6.11-12.65-13.91c0-10.6,7.2-20.01,12.65-23.26h0Zm0,95.22c-29.35,0-53.62-23.61-53.62-53.87,0-27.63,19.95-46.52,35.62-45.82-7.43,7.39-11.92,18.17-11.92,28.62,0,17.94,14.24,30.52,29.93,30.52s29.93-12.58,29.93-30.52c0-10.43-4.51-21.21-11.92-28.62,15.67-.7,35.62,18.17,35.62,45.82,0,30.26-24.28,53.87-53.62,53.87h-.04Z"/>
      <g id="g22">
        <path id="path8" class="cls-1" d="m315.46,201.89v14.63h22.31v54.92h15.79v-54.92h22.31v-14.63h-60.41Z"/>
        <path id="path10" class="cls-1" d="m575.47,201.89h-39.78v14.74h38.72c5.67,0,7.89,2.59,7.89,9.25v2.46h-32.08c-12.21,0-18.27,6.1-18.27,19.89v3.29c0,14.18,6.29,19.89,18.94,19.89h47.06v-45.7c0-17.51-5.79-23.82-22.48-23.82Zm-22.93,54.66c-2.4,0-5.07-1.22-5.07-7.18s2.65-7,5.07-7h29.78v14.2h-29.78v-.02Z"/>
        <path id="path12" class="cls-1" d="m706.62,201.89h-39.76v14.74h38.72c5.69,0,7.89,2.59,7.89,9.25v2.46h-32.1c-12.21,0-18.27,6.1-18.27,19.89v3.29c0,14.18,6.29,19.89,18.94,19.89h47.06v-45.7c0-17.51-5.79-23.82-22.48-23.82h0Zm-22.93,54.66c-2.4,0-5.07-1.22-5.07-7.18s2.65-7,5.07-7h29.78v14.2h-29.78v-.02Z"/>
        <path id="path14" class="cls-1" d="m380.88,201.89v14.63h22.31v54.92h15.81v-54.92h22.31v-14.63h-60.43Z"/>
        <path id="path16" class="cls-1" d="m601.12,201.89v14.63h22.31v54.92h15.81v-54.92h22.31v-14.63h-60.43Z"/>
        <path id="path18" class="cls-1" d="m525.81,247.05v-20.8c0-18.23-7.06-24.36-23.01-24.36h-42.3v69.52h43.03c16.91,0,22.27-8.4,22.27-24.36Zm-16.14.31c0,6.66-2.24,9.25-7.93,9.25h-25.45v-39.92h25.45c5.67,0,7.93,2.59,7.93,9.25v21.42Z"/>
        <path id="path20" class="cls-1" d="m293.17,254.85c-.33-.64-21.44-41.78-24.03-45.82-2.98-4.68-6.6-7.93-13.55-7.93-6.44,0-14.09,2.86-14.09,18.34v51.99h15.58v-43.36c0-3.12-.19-7.72-.23-8.65-.04-.75,0-1.49.39-1.7.45-.25.89.15,1.2.74s19.87,39.28,24.03,45.82c2.98,4.68,6.6,7.93,13.55,7.93,6.44,0,14.09-2.86,14.09-18.34v-51.99h-15.58v43.36c0,3.12.19,7.72.23,8.65.04.75,0,1.49-.39,1.7-.45.25-.89-.15-1.2-.74Z"/>
      </g>
    </g>
  </g>
</svg>