<?xml version="1.0" encoding="UTF-8"?>
<svg id="Calque_1" data-name="Calque 1" xmlns="http://www.w3.org/2000/svg" viewBox="0 0 800 477">
  <defs>
    <style>
      .cls-1 {
        fill: #1b1b1c;
        stroke-width: 0px;
      }
    </style>
  </defs>
  <g id="layer1">
    <g id="g76">
      <path class="cls-1" d="m310.49,277.48c-.16,3.42.09,6.84.77,10.2,1.32,5.25,8.87,28.53,8.87,28.53h-39s24.63-29.97,28.81-38.98c.46-.99.56-.22.56.25Z"/>
      <path class="cls-1" d="m379.38,353.38l-10.74,14.74-6.67-20.67,10.37-13.47s6.05,18.33,7.04,19.4Z"/>
      <path class="cls-1" d="m460.31,277.48c-.16,3.42.09,6.84.76,10.2,1.32,5.25,8.88,28.53,8.88,28.53h-38.99s24.62-29.97,28.81-38.98c.45-.99.54-.22.54.25Z"/>
      <path class="cls-1" d="m595.23,43.28v390.44H204.77v-39.05h17.21c.22-1.5,9.86-15.34,11.18-16.67,1.31-1.34,34.4-44.83,34.4-44.83h58.04l6.79,23.51s-16.93,22.15-21.49,27.49c-2.69,3.16-10.4,10.5-10.4,10.5h27.29s.95-2.25,3.13-6.32c2.2-4.05,9.93-13.43,9.93-13.43,0,0,3.38,10.51,3.64,12.28.35,2.21,1.26,7.48,1.26,7.48h27.6s.97-2.09,3.18-6.15c2.17-4.06,10.17-12.83,10.17-12.83,0,0,3.06,9.73,3.34,11.5.35,2.21,1.26,7.48,1.26,7.48h35.28s-5.27-9.14-6.46-12.2c-.68-1.7-11.73-36.26-11.73-36.26l9.2-13.04h58.48s13.32,42.84,14.9,48.5c1.04,4.27,1.62,8.61,1.73,12.99h36.82c-5.58-3.94-19.6-53.5-26.41-72.54l-17.84-61.81c-.87-2.36-1.53-10.87-1.53-10.87h-28.48c-1.53,4.06-4.14,7.79-5.91,11.07-2.18,4.07-38.38,51.52-46.33,61.6-1.16,1.47-1.83,2.3-1.85,2.3,0-.09-.25-.98-.61-2.3-1.31-4.57-4-13.73-4-13.73,0,0,30.84-39.2,33.98-43.19,9.37-11.85,14.72-15.76,14.72-15.76h-29.2c-.24,3.17-1.26,6.23-2.96,8.91-1.4,2.15-25.29,32.11-25.29,32.11,0,0-7.51-27.11-8.95-31.5-.88-3.09-1.26-6.31-1.14-9.53h-35.05c1.32,1.5,5.38,11.51,5.38,11.51l17.27,53.19-10.1,12.92c-.43-.65-18.71-60.63-19.49-63.13-.88-2.83-1.8-14.5-1.8-14.5h-30.01s-5.83,12.68-9.86,18.55c-1.68,2.43-20.69,27.92-40.97,54.12-22.55,30.05-47.1,60.54-47.64,60.93-.24.21-.47.43-.68.66V43.28h368.5l-148.97,192.81h22.41l148.49-192.81h.01Z"/>
    </g>
  </g>
</svg>