<?xml version="1.0" encoding="UTF-8"?>
<svg id="Calque_1" data-name="Calque 1" xmlns="http://www.w3.org/2000/svg" viewBox="0 0 800 477">
  <defs>
    <style>
      .cls-1 {
        fill: #fff;
      }

      .cls-1, .cls-2 {
        stroke-width: 0px;
      }

      .cls-2 {
        fill: #1b1b1c;
      }
    </style>
  </defs>
  <g id="layer1">
    <g id="switch29">
      <g id="g27">
        <g id="_レイヤー_1" data-name="レイヤー 1">
          <g id="g24">
            <g id="g8">
              <path id="path4" class="cls-2" d="m132.21,158.71c-44.06,0-79.78,35.72-79.78,79.79s35.72,79.79,79.78,79.79,79.79-35.73,79.79-79.79-35.72-79.79-79.79-79.79Z"/>
            </g>
            <g id="g8-2" data-name="g8">
              <path id="path4-2" data-name="path4" class="cls-1" d="m132.21,163.6c-41.36,0-74.9,33.53-74.9,74.9s33.53,74.9,74.9,74.9,74.9-33.54,74.9-74.9-33.53-74.9-74.9-74.9Z"/>
            </g>
            <g id="g8-3" data-name="g8">
              <path id="path4-3" data-name="path4" class="cls-2" d="m132.21,168.93c-38.42,0-69.56,31.14-69.56,69.57s31.15,69.57,69.56,69.57,69.57-31.15,69.57-69.57-31.15-69.57-69.57-69.57Z"/>
            </g>
            <g id="g22">
              <polygon id="polygon10" class="cls-2" points="628.46 223.36 603.58 223.36 603.58 173.63 580.86 173.63 580.86 303.37 603.58 303.37 603.58 246.39 628.46 246.39 628.46 303.37 651.68 303.37 651.68 173.63 628.46 173.63 628.46 223.36"/>
              <polygon id="polygon12" class="cls-2" points="223.33 173.63 248.55 253.18 248.55 303.37 273.79 303.37 273.79 250.61 299.94 173.63 278.69 173.63 261.53 224.17 246 173.63 223.33 173.63"/>
              <polygon id="polygon14" class="cls-2" points="442.49 173.63 431.6 235.35 418.98 173.63 383.51 173.63 383.51 303.37 403.85 303.37 403.85 205.57 421.21 290.59 440.2 290.59 455.6 204.19 455.6 303.37 479.45 303.37 479.45 173.63 442.49 173.63"/>
              <path id="path16" class="cls-2" d="m720.91,173.63h-35.14l-23.71,129.74h21.03l5.03-30.19h26.15l4.88,30.19h23.17l-21.41-129.74Zm-29.19,77.92l9.67-58.03,9.38,58.03h-19.05Z"/>
              <path id="path18" class="cls-2" d="m513.55,173.63l-23.72,129.74h21.03l5.03-30.19h26.15l4.88,30.19h23.16l-21.41-129.74h-35.13Zm5.95,77.92l9.67-58.03,9.38,58.03h-19.05Z"/>
              <path id="path20" class="cls-2" d="m316.19,173.63l-23.72,129.74h21.03l5.03-30.19h26.15l4.88,30.19h23.16l-21.41-129.74h-35.13Zm5.95,77.92l9.67-58.03,9.38,58.03h-19.05Z"/>
            </g>
          </g>
        </g>
      </g>
    </g>
  </g>
  <path id="path6" class="cls-1" d="m186.38,268.52l-10.82-12.64c-.13-.15-.29-.28-.47-.39-.55-.32-1.2-.32-1.74-.06h0c-1.65.78-3.65.77-5.35-.22-1.52-.87-2.48-2.33-2.78-3.93h0c-.76-4.06-3.22-7.76-7.07-9.98l-4.85-2.8,27.55-15.91-3.41-5.91-30.96,17.87-3.72-2.15v-4.3l30.96-17.88-3.41-5.91-27.55,15.91v-5.59c0-4.45-1.99-8.43-5.11-11.12h0c-1.23-1.05-2.01-2.62-2.01-4.37,0-1.97.99-3.71,2.49-4.75.49-.33.81-.9.81-1.54,0-.21-.03-.41-.1-.6l-5.53-15.69c-.15-.46-.58-.79-1.09-.79s-.94.33-1.09.79l-5.53,15.69c-.07.19-.1.39-.1.6,0,.64.32,1.21.81,1.54h0c1.5,1.04,2.49,2.78,2.49,4.75,0,1.75-.78,3.32-2.01,4.37-3.13,2.68-5.11,6.67-5.11,11.12v5.59l-27.55-15.91-3.41,5.91,30.96,17.88v4.3l-3.72,2.14-30.96-17.87-3.41,5.91,27.55,15.91-4.85,2.8c-3.85,2.22-6.31,5.93-7.07,9.98h0c-.3,1.59-1.26,3.06-2.78,3.93-1.71.98-3.7,1-5.36.22h0c-.54-.26-1.19-.25-1.74.06-.18.11-.34.24-.47.39l-10.82,12.63c-.32.36-.39.9-.13,1.34.25.43.75.65,1.22.56l16.35-3.06c.2-.04.39-.11.57-.21.56-.32.88-.88.93-1.48.15-1.82,1.16-3.55,2.87-4.53,1.51-.87,3.26-.98,4.79-.44,3.89,1.37,8.33,1.09,12.18-1.13l4.85-2.79v31.81h6.82v-35.75l3.72-2.15,3.72,2.15v35.75h6.82v-31.81l4.84,2.79c3.85,2.23,8.29,2.5,12.18,1.13,1.53-.54,3.28-.43,4.79.44,1.7.98,2.72,2.71,2.86,4.53.05.6.37,1.16.92,1.48.18.1.38.17.58.21l16.35,3.06c.47.09.97-.12,1.23-.56.25-.44.17-.98-.14-1.33h0Zm-64.71-19.63l-9.09,5.25c-1.78,1.03-4.06.42-5.08-1.36-1.03-1.78-.42-4.06,1.36-5.09l9.09-5.25,3.72,2.15v4.3h0Zm6.82-35.2c0-2.06,1.66-3.73,3.72-3.73s3.72,1.67,3.72,3.73v10.5l-3.72,2.15-3.72-2.15v-10.5Zm8,27.29l-4.28,2.47-4.28-2.47v-4.94l4.28-2.47,4.28,2.47v4.95Zm20.44,11.8c-1.03,1.78-3.31,2.39-5.09,1.36l-9.09-5.25v-4.3l3.72-2.15,9.09,5.25c1.78,1.03,2.39,3.3,1.37,5.09Z"/>
</svg>