<?xml version="1.0" encoding="UTF-8"?>
<svg id="Calque_1" data-name="Calque 1" xmlns="http://www.w3.org/2000/svg" viewBox="0 0 800 477">
  <defs>
    <style>
      .cls-1 {
        fill: #1b1b1c;
        stroke-width: 0px;
      }
    </style>
  </defs>
  <path class="cls-1" d="m179.02,246.69c4.33,3.62,12.53,5.43,14.59,18.44,2.06,13.02-9.41,33.64-26.4,40.26-11.82,4.7-18.44,3.47-29.17,2.77-4.58-2.53-15.91-4.33-20.61-17.73-2.53-7.23-4.58-16.03-1.56-23.75l1.56-4.7c1.09-5.79.61,1.73,2.29-3.02.24-.73-.49-.36.97-2.41l4.7-5.2c2.53-2.53,3.62-2.17,4.45-5.43-3.02-.85-1.09-.85-4.09-1.73l3.74-4.33c.97-1.33.73-.36,1.21-2.17,3.62.85,2.65,1.56,5.67,2.41-3.47-6.64-1.21-6.27,4.33-12.13,3.37-3.68,7.51-6.57,12.13-8.44,7.23-3.26,15.79-4.09,25.32-3.26,3.74.36,5.2,1.44,9.17,1.56l.97.73c.47.37.99.66,1.56.85,5.67,2.65,15.6,6.93,21.34,7.47,15.6,1.33,8.56-.49,22.91,0,3.99.12,3.87.73,7.35.85-3.02-3.99-6.93-3.47-9.88-5.79,7.83-.85,7.35-.12,8.56-1.92.83-1.71,2.71-2.65,4.58-2.29l2.29.36h.43c.12,0,.49-.12.61-.12s.36-.12.49-.12c4.45-1.21,6.93-5.06,12.13-6.15,4.58-1.09,9.29-1.09,14.47-8.56-7.11.61-19.41,13.38-54.25,1.73-2.65-.97-4.94-2.05-7.35-2.65,1.37-1.88,1.32-4.45-.12-6.27-1.73-2.65-6.52-4.45-9.64-5.2-2.6-1.15-5.3-2.04-8.08-2.65-2.53-.61-6.27-.85-9.17-1.44,1.44-.97,6.52-1.44,8.32-1.56,3.21-.22,6.43-.26,9.64-.12-1.73-2.29-3.87-1.73-8.08-1.56l-7.35.12c-5.67,1.44-6.93,2.29-14.84,2.29.73-2.05,2.05-2.29-.73-2.53-18.08-1.73-34.35,8.67-39.55,9.88,1.73-2.17,23.99-14.35,27.98-16.4l24.47-14.11c1.73-1.33,1.92-.61,2.53-3.14l-9.41,2.89c-7.47,3.02-25.69,8.44-33.16,9.53-8.2,1.21.36-1.33-11.58,2.29l-4.45,1.33c-4.58,1.73-2.53,2.17-5.2,3.02-3.74,1.21,0-1.33-3.38,0-2.65,1.09-.97,1.44-4.21,2.29,1.8-2.3,3.96-4.29,6.4-5.91,3.47-2.89,5.91-3.62,6.76-6.4-4.09.12-5.67,2.05-8.44,3.99s-5.06,3.26-7.83,5.2c-2.77,1.94-3.99,3.38-7.47,4.94-2.93,1.32-5.72,2.93-8.32,4.82.85-3.14,3.26-5.2,4.94-8.2-3.74.97-.85,1.73-6.64,5.55-3.02,2.05-2.17,2.05-3.26,4.09-2.29,3.99-4.94,3.62-9.88,9.88-3.14,3.99-8.08,5.43-9.76,8.2l-.73,2.29c.02.17-.02.34-.12.49-1.56,3.14-6.15,3.99-6.52,8.81,3.62.12,5.79.85,10.61.85,28.22-.12,29.66-14.11,60.04-11.58,4.21.36,7.59.97,11.46.97v1.56c-10.24.24-30.99,10.97-37.61,15.79-10.8,7.77-18.91,18.72-23.17,31.32-7.47,24.11,4.71,42.45,24.01,52.16,4.58,2.29,14.11,6.64,20.02,6.76,3.62,1.44,35.93.97,36.78.73,2.65-.85.61.12-.12-.61-1.73-1.73-1.73,1.09-1.09-.97,2.05-.36,6.93-.85,8.32-1.92,0-.12.24-.24.24-.36l.49-.97c6.03,0,12.9-1.21,16.88-3.62s4.58-1.44,9.88-3.26c5.79-1.73,20.61-6.76,23.26-10.24-5.2,1.21-14.23,5.67-23.75,5.67.12-.12.49-.36.49-.24s.49-.24.61-.36c5.43-2.89,2.41-1.73,5.2-3.74.86-.6,1.79-1.08,2.77-1.44-.07-1.68-.35-3.34-.85-4.94,2.89-1.92,2.53-1.09,3.26-3.99l.24-1.44c.85-4.45,2.29-5.55,6.64-10.73l12.13-13.87c-.36-3.62,26.16-13.26,27.01-23.26-2.17,1.73-1.73,3.02-6.4,6.64-7.59,5.79-10.73,5.79-20.61,5.67-5.79,0-7.83.85-13.14.85,2.41-3.47,2.05.12,3.26-4.09-3.42,1.14-7,1.73-10.61,1.73-12.41.12-13.75-8.08-29.05-9.05-14.11-.24-30.75-3.14-46.05,6.93-23.5,15.6-14.59,36.66,2.05,37.37,3.82.3,7.59-1.02,10.4-3.62,8.56-8.93-1.73-16.88-2.77-18.08-9.17-13.02,7.71-18.93,25.57-15.6,2.65.36,3.87.97,6.15,1.09l-.17-.03Z"/>
  <path class="cls-1" d="m341.67,186.88c-12.62.16-25.31,4.7-34.02,13.87-25.13,26.49-16.87,92.75,33.05,92.75,9.95,0,15.84-1.18,23.28-5.39,5.74-3.21,7.25-4.39,10.4-9.1l3.03-3.88,1.35,16.02h7.77v-52.73h-43.68v9.27h34.6c-1.01,40.3-44.53,45.36-61.72,24.96-18.39-21.93-13.66-67.96,17.33-75.05,21.75-4.89,40.47,9.12,40.82,23.61h11.47c-1.85-22.65-22.65-34.56-43.68-34.32Zm286.53,27.85c-4.11-.07-8.21.51-12.13,1.73-8.27,2.53-8.09,5.56-13.66,9.27v-9.1h-10.3v74.53h10.3v-43.51c0-29.67,40.14-32.55,40.14-5.74v49.24h10.4v-50.4c.09-18.96-12.25-25.79-24.75-26.03h0Zm-197.46,0c-14.01.16-29.15,6.64-29.15,26h10.3c0-22.1,33.38-22.78,37.09-6.07,5.74,24.96-50.92.85-50.92,37.11,0,15.18,12.13,21.75,27.73,21.75,12.65,0,18.22-5.91,24.11-12.65,2.53,11.3,3.03,10.3,17.19,10.3v-9.1c-6.57,1.53-8.09-.85-8.09-9.1-.5-23.28,4.21-44.18-7.77-53.13-4.11-3.02-12.1-5.2-20.51-5.11h.02Zm267.87,0c-14.14-.24-30.73,5.7-30.73,26h10.4c0-24.63,36.59-19.9,36.59-5.74v5.74c0,14.33-50.42-2.36-50.42,31.03,0,25.29,33.9,26.47,46.8,14.51,3.21-2.86,1.73-3.03,4.89-5.39,1.01,11.98,7.25,10.3,17.19,10.3v-9.1c-4.39,1.01-2.36,1.01-6.74,0-6.24-26.31,7.77-53.98-11.98-63.92-5.03-2.26-10.5-3.41-16.02-3.36l.02-.05Zm-151.28.19c-18.88.14-32.07,15.22-32.07,36.1v9.27c0,44.53,65.43,42.33,65.43,5.74-17.19,0-5.2.85-15.6,11.8-11.47,11.8-32.93,8.27-38.44-10.4-1.18-3.71-.5-7.09-2.18-10.63h57.51c0-21.75-7.42-39.47-30.7-41.6-1.32-.16-2.64-.24-3.97-.26l.02-.03Zm-33.24.5c-10.63,0-17.54,2.53-23.95,9.45l-4.71,6.57v-14.84h-9.27v74.53h10.3v-41.25c0-14.16,11.3-24.11,27.73-24.11l-.09-10.35Zm34.41,8.09c13.87,0,21.93,12.31,22.93,25.29h-45.88c0-12.93,10.12-25.24,22.93-25.24l.02-.05Zm-98.66,28.67c0,10.3-.5,17.21-4.54,23.11-9.78,14.01-36.94,11.13-36.94-3.47-.02-18.41,28.98-13.02,41.46-19.59l.02-.05Zm265.2,1.18c0,11.47,1.53,15.01-4.06,22.26-8.42,11.47-36.09,13.99-36.09-6.24,0-7.09,9.78-10.8,16.52-12.13l23.63-3.88Z"/>
</svg>