<?xml version="1.0" encoding="UTF-8"?>
<svg id="Calque_1" data-name="Calque 1" xmlns="http://www.w3.org/2000/svg" viewBox="0 0 800 477">
  <defs>
    <style>
      .cls-1 {
        stroke-width: 0px;
      }
    </style>
  </defs>
  <path class="cls-1" d="m248.33,340.23c23.12,0,65.5-.09,65.5-.09v20.94s-68.44-.03-95.25.01c-10.08.02-9.43,1.16-9.49,11.3-.06,10.52.11,21.04-.05,31.56-.09,5.95.57,8.7,6.7,8.65,18.79-.15,37.58-.06,56.37-.06,3.14,0,6.4-.36,7.29-3.91,1.03-4.09,1.33-8.46-.13-12.47-.62-1.7-3.2-.75-4.87-.76-11.52-.07-39.52.09-39.52.09l-.09-16.95s48.46-.11,68.25-.16c9.57-.02,10.15.54,9.92,10.22-.21,9.26.2,18.53-1.12,27.75-1.6,11.13-7.29,16.84-18.27,16.96-29.81.3-59.62.65-89.42.29-20.34-.24-28.78-9.34-29.7-29.63-.57-12.53-.62-25.04.16-37.55.94-15.12,9.37-23.79,24.48-25.21,18.24-1.7,36.54-.64,49.23-.99h0Zm273.3,43.81c0,14.44-.37,28.31.16,42.16.25,6.48,0,7.69,0,7.69l-34.52-.29s0-1.7,0-5.44c-.04-27.82-.09-59.27-.18-87.09,0,0,21.62-.08,30.39-.04,4.67.02,6.24,3.45,7.91,6.89,8.42,17.31,16.87,34.6,25.33,51.89,1.62,3.32,3.31,6.6,5.67,11.29,4.39-8.81,8.31-16.49,12.07-24.26,6.22-12.82,12.44-25.64,18.44-38.56,2.62-5.63,6.37-8.51,12.85-8.16,7,.38,26.15-.03,26.15-.03,0,0-.11,59.34.04,86.4.03,5.58,0,7.56,0,7.56l-34.47-.06s-.07-1.81,0-6.15c.24-14.5.09-29,.09-43.72-3.57.49-3.78,3.4-4.74,5.4-5.75,11.93-11.61,23.82-16.84,35.98-2.64,6.14-6.61,9.07-13.11,8.94-6.69-.13-11.48-3.16-14.03-9.39-4.83-11.8-10.22-23.36-16.17-34.63-1.1-2.07-1.42-4.77-5.04-6.39h0Zm-43.33-43.85c-9.62,29.51-19.04,58.88-28.48,87.82-.31.94-.59,2.09-1.27,2.68-4.14,4.03-15.75,2.95-24.41,2.87-3.84-.11-5.7-3.21-6.85-6.58-4.21-12.28-8.36-24.58-12.59-36.85-1.1-3.19-2.45-6.3-3.82-9.8,0,0-13.94,34.27-18.14,47.09-1.47,4.49-3.91,6.45-8.72,6.33-25.78-.64-19.39,3.19-27.29-19.22-8.62-24.46-16.52-49.16-24.93-74.34h32.18l20.4,57.17s12.36-34.94,16.82-49.24c1.44-4.59,3.01-8.13,8.92-8.26,5.96-.14,7.66,3.32,9.12,7.93,4.51,14.28,14.72,47.74,17.72,49.98,5.14-15.84,18.04-57.58,18.04-57.58,0,0,32.08-.27,33.33,0h0Zm-78.49-47.35c-45.37-.24-88.83-8.17-127.97-32.62-25.79-16.12-46.02-37.37-53.72-67.5-11.09-43.37,4.32-78.43,37.46-106.39,27.65-23.33,60.73-34.74,95.98-39.89,51.47-7.51,102.13-4.94,150.97,14.91,15.81,6.43,30.36,15.02,43.34,26.18,52.98,45.55,52.47,116.29-1.35,160.94-30.31,25.13-66.27,36.57-104.58,41.94-13.31,1.87-26.7,2.36-40.12,2.43h0Zm.43-15.8c18.78-.2,37.51-1.16,56.01-4.6,31.09-5.79,60.5-15.59,84.71-37.08,41.11-36.49,43.37-94.32,5.35-133.96-15.5-16.16-33.95-27.95-54.58-36.3-44.57-18.03-90.72-20.96-137.69-13.07-38.7,6.51-73.72,21.05-101.27,50.18-36.07,38.12-34.8,92.75,2.81,129.49,10.76,10.51,23.21,18.53,36.83,24.81,34.23,15.78,70.63,20.26,107.83,20.53h0Z"/>
  <path class="cls-1" d="m405.6,107.77l60.5,36.36c-.03,10.14-.23,33.94-.23,33.94-2.23,33.19,20.2,39.69,43.69,32.46,26.57-8.17,41-38.25,32.8-67.49-6-21.39-20.47-35.87-38.6-47.27-28.35-17.83-60.07-23.66-92.82-25.32-37.83-1.92-74.34,3.67-108.14,21.56-23.53,12.45-41.4,30.05-46.62,57.58-6.79,35.88,21.9,68.23,55.68,62.81,14.27-2.29,21.87-10.87,22.14-25.62.24-13.12.2-31.6-.03-44.72l60.6-34.57c-.48,31.88.63,71.95-1.13,103.82-1.28,23.05-15.07,37.14-37.98,39.94-28.51,3.49-55.17-1.34-79.5-16.98-42.79-27.53-51.95-81.82-20.64-122.11,19.57-25.18,46.35-38.4,76.57-45.95,55.61-13.88,110.34-12.42,163.8,9.59,30.91,12.73,54.47,33.2,64.08,66.27,9.35,32.17,1.36,60.77-23.66,82.71-28.39,24.9-62.27,32.7-99.26,24.68-17.96-3.89-28.45-15.93-29.84-34.34-2.68-35.1-.58-70.29-1.42-107.34h0Z"/>
</svg>