<?xml version="1.0" encoding="UTF-8"?>
<svg id="Calque_1" data-name="Calque 1" xmlns="http://www.w3.org/2000/svg" viewBox="0 0 800 477">
  <defs>
    <style>
      .cls-1 {
        stroke-width: 0px;
      }
    </style>
  </defs>
  <path class="cls-1" d="m706.88,208.46l-30.88,45.36c-4.06,5.96-10.66,11.71-18.62,12.33v1.39h34.34c9.12,0,15.77-6.03,20.27-12.66l31.71-46.41h-36.82Z"/>
  <path class="cls-1" d="m138.25,267.54v-54.09h15.54v54.09h-15.55,0Zm358.52,0l-37.35-32.12v32.12h-13.13v-54.09h11.15l36.86,31.62v-31.62h13.13v54.09s-10.65,0-10.65,0Zm81.23-36.64c-7.02-3.51-14.94-6.35-25.43-6.35-12.53,0-21.87,6.58-21.87,15.72s9.51,16.01,21.75,16.01c10.11,0,18.12-2.62,26.03-7.25v13.39c-6.98,3.51-16.25,6.13-26.69,6.13-21.31,0-38.07-11.04-38.07-28.27s17.09-27.83,38.01-27.83c9.89,0,18.84,1.9,26.26,4.97v13.49Zm-337.69,36.64v-54.09h51.96v11.6h-36.42v13.44h35.6v11.6h-35.6v17.46h-15.54,0Zm347.09,0v-54.09h53.94v11.6h-38.4v9.37h37.79v11.6h-37.79v9.93h38.23v11.6h-53.77Zm-241.14-20.3l21.48,20.3h-16.59c-3.68,0-6.1-1.17-8.02-3.07l-14.61-14.39c-.34-.31-.8-.47-1.26-.44h-9.94v17.9h-15.54v-54.09h33.67c17.47,0,24.83,7.98,24.83,16.79,0,10.26-9.01,15.16-14.01,17.01h0Zm-12.41-8.92c6.15,0,9.11-3.18,9.11-6.75s-2.63-6.53-9.11-6.53h-16.54v13.27h16.54Zm-121.01,8.93l21.48,20.3h-16.58c-3.68,0-6.1-1.17-8.02-3.07l-14.61-14.39c-.35-.31-.8-.47-1.26-.44h-9.94v17.9h-15.55v-54.09h33.67c17.47,0,24.83,7.98,24.83,16.79,0,10.26-9.01,15.16-14.01,17.01Zm-12.41-8.93c6.15,0,9.12-3.18,9.12-6.75s-2.64-6.53-9.12-6.53h-16.53v13.27h16.53Zm-86.52,29.22l-6.81-11.88h-29.77l-6.21,11.88h-14.83l29.66-54.04h13.51l33.62,54.04h-19.18Zm-30.65-23.15h17.36l-9.01-16.51-8.35,16.51Zm341.05,23.15l-6.65-11.88h-28.99l-5.99,11.88h-14.45l28.89-54.04h13.13l32.68,54.04s-18.62,0-18.62,0Zm-29.82-23.15h16.92l-8.79-16.51-8.13,16.51Z"/>
</svg>