<?xml version="1.0" encoding="UTF-8"?>
<svg id="Calque_1" data-name="Calque 1" xmlns="http://www.w3.org/2000/svg" viewBox="0 0 800 477">
  <defs>
    <style>
      .cls-1 {
        stroke-width: 0px;
      }
    </style>
  </defs>
  <path id="path370" class="cls-1" d="m510.12,173.13c-38.64,0-64.29,28.74-64.29,65.33,0,38.69,26,65.28,64.29,65.28s64.16-27.79,64.16-65.31-26.6-65.3-64.16-65.3Zm-220.01.09c-12.28,0-27.81,4.23-39.24,13.63-13.63,11.21-24.19,28.76-24.19,52.37,0,20.35,6.6,36.75,18.49,47.85,11.65,10.87,28.12,16.81,48.55,16.81,16.44,0,36.31-6.21,44.82-11.47,2.98-1.84,3.92-2.63,3.14-5.64l-5.32-15.06c-.62-2.47-3.36-3.1-5.58-2-3.74,1.84-6.53,3.28-10.32,4.68-7.36,2.72-14.98,4.58-22.24,4.58-15.27,0-23.96-4.15-30.61-11.81-4.22-4.86-6.7-11.03-7.47-18.15h84.28c3.07,0,4.43-2.12,4.43-5.7v-6.07c0-2.96-.13-7.6-.39-10.38-1.55-16.97-7.79-30.62-18.21-39.87-10.03-8.93-23.51-13.74-40.16-13.74Zm137.4.12c-24.33,0-39.2,5.58-48.73,17.88-7.31,9.43-8.63,19.97-8.62,42.54v61.92c.34,4.41,2.11,6.48,6.24,6.48h19.25c4.45,0,6.27-2.32,6.27-6.48v-63.08c0-14.21.17-22.14,5.17-27.5,4.3-4.61,10.06-7.63,22.16-7.63,2.4,0,8.14.63,10.15.88.76.09,1.38.15,1.7.15,2.09,0,2.81-.76,3.48-3.41l2.89-14.2c.53-2.91.09-5.17-2.81-5.86-4.41-1.04-11.43-1.68-17.15-1.68Zm-319.3,1.69c-2.09,0-3.6,1.67-2.74,4.49,5.74,18.74,20.29,40.99,35.37,59.26-19.23,17.32-32.67,40.36-39.42,58.87-1,2.72.55,4.5,2.06,4.5h22.69c3.27,0,4.76-1.16,6.26-4.48,6.13-13.55,15.24-29.18,27.18-41.86,10.95,10.54,20.53,26.57,26.67,41.86,1.72,4.23,3.71,4.48,6.28,4.48h24.74c4.73,0,5.15-2.57,4.3-4.8-9.44-24.87-29.51-50.26-40.83-60.98,10.37-11.07,29.16-32.44,37.37-56.85,1.21-3.59-1.02-4.49-2.88-4.49h-20.71c-2.51,0-4.19.88-6.05,4.49-11.16,21.04-21.2,33.44-25.52,37.92-6.81-8.09-15.77-22.64-22.33-37.92-1.42-3.31-2.93-4.49-5.81-4.49h-26.65Zm476.93,0c-2.09,0-3.59,1.67-2.74,4.49,5.73,18.74,20.28,40.99,35.37,59.26-19.22,17.32-32.67,40.36-39.41,58.87-1,2.72.56,4.5,2.07,4.5h22.68c3.26,0,4.76-1.16,6.25-4.48,6.14-13.55,15.24-29.18,27.19-41.86,10.95,10.54,20.53,26.57,26.66,41.86,1.73,4.23,3.72,4.48,6.28,4.48h24.74c4.73,0,5.15-2.57,4.31-4.8-9.44-24.87-29.52-50.26-40.82-60.98,10.36-11.07,29.16-32.44,37.37-56.85,1.21-3.59-1.02-4.49-2.88-4.49h-20.71c-2.52,0-4.2.88-6.05,4.49-11.15,21.04-21.19,33.44-25.51,37.92-6.82-8.09-15.78-22.64-22.34-37.92-1.42-3.31-2.93-4.49-5.81-4.49h-26.65Zm-75,22.02c22.5,0,30.98,19.46,30.98,41.39s-8.48,41.41-30.98,41.41c-22.51,0-31.18-19.47-31.18-41.41s8.67-41.39,31.18-41.39Zm-218.98.11c16.83,0,27.12,11.43,27.12,28.4v.77h-58.17c.63-4.22,1.83-8.23,3.72-12.04,5.19-10.46,15.08-17.14,27.33-17.14Z"/>
</svg>