<?xml version="1.0" encoding="UTF-8"?>
<svg id="Calque_1" data-name="Calque 1" xmlns="http://www.w3.org/2000/svg" viewBox="0 0 800 477">
  <defs>
    <style>
      .cls-1 {
        stroke-width: 0px;
      }
    </style>
  </defs>
  <path class="cls-1" d="m609.48,255.02h0v57.92c0,4.28,3.47,7.75,7.75,7.75h19.62c4.35,0,5.52-3.79,5.43-8.14v-58.81c.28-18.37,12.75-32.35,27.7-35.73,3.59-.75,6.18-3.88,6.25-7.54v-18.73c0-4.29-3.46-7.77-7.75-7.77-.36,0-.71.02-1.06.07-32.46,4.66-57.64,34.66-57.94,70.98Z"/>
  <path class="cls-1" d="m398.48,269.39l34.05-75.78c1.25-2.78,4.02-4.57,7.07-4.57h19.54c4.28.02,7.73,3.51,7.71,7.79,0,1.11-.25,2.21-.71,3.21l-53.37,116.14c-1.26,2.74-3.99,4.5-7,4.51h-14.5c-3.01-.02-5.74-1.78-7-4.51l-53.5-116.16c-1.79-3.89-.1-8.49,3.79-10.29,1.01-.47,2.1-.71,3.21-.71h19.6c3.05,0,5.82,1.79,7.07,4.57l34.04,75.8Z"/>
  <path class="cls-1" d="m325.5,265.69h-88.82c6.3,17.06,20.44,25.05,34.06,25.05,11.36,0,21.2-5.06,28.77-10.66,3.53-2.13,6.56-1.86,9.33,1.6l11.11,13.86c2.77,3.73,2.27,7.2-1,9.86-16.4,13.33-34.07,18.12-48.7,18.12-38.36,0-67.12-32-67.12-70.09s28.51-67.43,64.59-67.43,61.57,28,64.1,72.76c.24,4.53-2.28,6.93-6.32,6.93Zm-29-26.65c-2.7-14.15-15.12-24.35-29.52-24.25-15.14,0-27.26,10.13-30,24.25h59.52Z"/>
  <path class="cls-1" d="m589.2,265.69h-88.82c6.31,17.06,20.44,25.05,34.06,25.05,11.36,0,21.2-5.06,28.77-10.66,3.53-2.13,6.56-1.86,9.34,1.6l11.1,13.86c2.77,3.73,2.27,7.2-1,9.86-16.4,13.33-34.07,18.12-48.7,18.12-38.36,0-67.12-32-67.12-70.09s28.51-67.43,64.59-67.43,61.57,28,64.1,72.76c.26,4.53-2.28,6.93-6.32,6.93Zm-29-26.65c-2.7-14.15-15.12-24.35-29.52-24.25-15.14,0-27.25,10.13-30,24.25h59.52Z"/>
  <path class="cls-1" d="m159.06,235.53v-5c0-20.18,12.1-37,28-40.53,3.59-.73,6.18-3.87,6.23-7.53v-21.22c.02-4.27-3.43-7.75-7.71-7.77-.34,0-.68.02-1.01.06-34.1,4.79-60.59,37.27-60.8,76.56h0v82.84c0,4.28,3.47,7.75,7.75,7.75h19.79c4.28,0,7.75-3.47,7.75-7.75v-47.55h21.32c4.28,0,7.74-3.47,7.74-7.75v-14.36c0-4.28-3.46-7.74-7.74-7.75h-21.32Z"/>
</svg>