<?xml version="1.0" encoding="UTF-8"?>
<svg id="Calque_1" data-name="Calque 1" xmlns="http://www.w3.org/2000/svg" viewBox="0 0 800 477">
  <defs>
    <style>
      .cls-1 {
        fill: #fff;
      }

      .cls-1, .cls-2, .cls-3 {
        stroke-width: 0px;
      }

      .cls-1, .cls-3 {
        fill-rule: evenodd;
      }

      .cls-2, .cls-3 {
        fill: #1b1b1c;
      }
    </style>
  </defs>
  <path class="cls-3" d="m711.04,211.36h0Zm35.05,41.38h-54.19c1.18,9.87,9.42,16,18.6,16,8.39,0,15.27-3.83,19.05-11.54l14.92,7.56c-6.09,11.98-18.9,19.78-33.43,19.78-21.89-.1-37.06-16.39-37.06-36.62s15.31-36.47,37.06-36.57c23.66,0,38.83,18.65,35.05,41.38Zm-16.98-12.42c-1.82-7.61-10.01-13.16-18.31-13.16s-16.3,5.3-18.36,13.16h36.67Z"/>
  <path class="cls-2" d="m655.08,213.32l-17.03,49.72-16.89-49.72h-19.14l25.33,69.26h21.55l25.28-69.26h-19.09Z"/>
  <path class="cls-2" d="m574.73,282.58h18.01v-69.26h-18.01v69.26Z"/>
  <path class="cls-3" d="m574.73,186.52h18.01v18.01h-18.01v-18.01Z"/>
  <path class="cls-2" d="m536.93,220.83l-.54-7.51h-16.69v69.26h18.01v-30.09c0-16.98,12.91-24.3,27.19-21.16v-18.51c-8.69-2.16-21.45-.83-27.98,8Z"/>
  <path class="cls-2" d="m462.42,194.42h-31.86v88.16h31.86c25.72,0,45.06-18.9,45.06-44.08s-19.34-44.08-45.06-44.08v.05-.05Zm0,70.98h-13.84v-53.9h13.84c15.85,0,27.1,11.09,27.1,26.95s-11.24,26.95-27.1,26.95Z"/>
  <path class="cls-2" d="m368.17,220.49l-.54-7.17h-16.69v69.26h18.01v-35.64c0-21.25,29.35-22.87,29.35-4.66v40.3h17.97v-41.92c0-31.02-34.21-34.8-48.1-20.17Z"/>
  <path class="cls-2" d="m319.04,282.58h17.97v-69.26h-17.97v69.26Z"/>
  <path class="cls-3" d="m319.04,186.52h17.97v18.01h-17.97v-18.01Z"/>
  <path class="cls-2" d="m53.33,238.5c0-27.24,0-40.89,3.78-51.84,6.92-19.93,22.63-35.64,42.56-42.56,10.95-3.78,24.59-3.78,51.84-3.78s40.89,0,51.84,3.78c19.98,6.92,35.64,22.58,42.56,42.56,3.78,10.95,3.78,24.59,3.78,51.84s0,40.89-3.78,51.84c-6.92,19.98-22.58,35.64-42.56,42.56-10.95,3.78-24.59,3.78-51.84,3.78s-40.89,0-51.84-3.78c-19.98-6.92-35.64-22.58-42.56-42.56-3.78-10.95-3.78-24.59-3.78-51.84Z"/>
  <path class="cls-1" d="m114.54,186.86c-1.28,0-2.36.05-3.24.15-.95.07-1.78.44-2.5,1.13-.69.75-1.06,1.6-1.13,2.55-.1.85-.15,1.91-.15,3.19v8.49c0,1.28.05,2.34.15,3.19.1.93.39,1.87,1.13,2.55.72.69,1.55,1.06,2.5,1.13.88.1,1.96.15,3.24.15h9.08c1.28,0,2.36-.05,3.24-.15.95-.07,1.8-.44,2.55-1.13.65-.75,1.03-1.6,1.13-2.55.1-.85.13-1.91.1-3.19v-8.49c.03-1.28,0-2.34-.1-3.19-.15-.93-.44-1.87-1.13-2.55-.75-.69-1.6-1.06-2.55-1.13-.88-.1-1.96-.15-3.24-.15h-9.08Zm0,38.73c-1.24-.03-2.31,0-3.19.1-.93.15-1.82.39-2.55,1.13-.69.75-1.06,1.6-1.13,2.55-.1.88-.15,1.96-.15,3.24v50.26c0,1.24.05,2.31.15,3.19.1.93.39,1.82,1.13,2.55.75.69,1.6,1.06,2.55,1.13.88.1,1.95.13,3.19.1h9.13c1.24.03,2.31,0,3.19-.1.93-.15,1.82-.39,2.55-1.13.69-.75,1.06-1.6,1.13-2.55.1-.88.13-1.95.1-3.19v-50.26c.03-1.28,0-2.36-.1-3.24-.15-.93-.39-1.82-1.13-2.55-.75-.65-1.6-1.03-2.55-1.13-.88-.1-1.95-.13-3.19-.1h-9.13Zm39.96-38.68c-1.28-.03-2.36,0-3.24.1-.95.07-1.8.44-2.55,1.13-.69.75-1.06,1.6-1.13,2.55-.1.88-.13,1.95-.1,3.19v8.3c-.03,1.28,0,2.36.1,3.24.07.95.44,1.78,1.13,2.5.75.69,1.6,1.06,2.55,1.13.88.1,1.96.15,3.24.15h9.96c8.59,0,15.85,2.99,20.96,8.15,5.1,5.1,8.1,12.37,8.1,21.06s-2.99,15.95-8.1,21.06c-5.1,5.1-12.37,8.1-20.96,8.1h-10.01c-1.24,0-2.31.05-3.19.15-.95.07-1.8.44-2.55,1.13-.69.75-1.06,1.6-1.13,2.55-.1.88-.13,1.95-.1,3.19v8.3c-.03,1.28,0,2.34.1,3.19.07.95.44,1.8,1.13,2.55.74.74,1.62,1.03,2.55,1.13.88.1,1.95.15,3.19.15h10.01c29.7,0,52.18-21.94,52.18-51.49s-22.48-51.54-52.18-51.54h-10.01l.05.05Z"/>
</svg>