<?xml version="1.0" encoding="UTF-8"?>
<svg id="Calque_1" data-name="Calque 1" xmlns="http://www.w3.org/2000/svg" viewBox="0 0 800 477">
  <defs>
    <style>
      .cls-1 {
        stroke-width: 0px;
      }
    </style>
  </defs>
  <g id="layer1">
    <path class="cls-1" d="m635.19,45.51c-20.15-10.17-48.42-18.45-90.85-16.64-40.57,1.73-83.22,10.62-117.24,37.73l.02.02c-17.72,14.16-34.68,32.87-44.54,53.32-.17.34-.33.69-.49,1.03-8.26-1.29-16.73-2.7-25.27-4.21-76.92-13.64-167.35-32.57-196.22-34.59-55.56-3.89-64.83,68.29-20.47,80.64,25.12,6.99,94.25-.35,111.05,32.82,5.12,10.1,18.66,48.21,34,95.39,6.02,18.5,54.92,15.59,45.82-23.82-5.19-22.51-17.02-83.3-17.02-83.3,0,0,27.27,2.89,58.74,6.21,2.12,13.78,6.02,26.03,9.51,36.1,11.88,34.31,35.96,51.64,64.65,64.29,40.91,18.04,92.33,19.26,139.03,7.2,16.46-4.25,42.01-13.09,47.59-21.33,6.04-8.93,6.99-26.2-5.98-33.78-12.66-7.4-13.88-1.75-51.57,6.62-26.23,5.82-54.87,6.83-89.27-8.02-21.69-9.36-36.37-23.74-41.39-43.38,0-.04-.02-.07-.03-.11,10.08,1.04,17.39,1.78,20.04,2.02v.03c97.63,8.45,132.81,2.88,152.08-2.19l.02.06c45.92-12.3,66.39-39.28,67.25-72.27h.03c.74-43.2-22.95-66.45-49.5-79.85Zm-164.96,87.29v-.05c-3.93-.52-9.7-1.21-16.91-2.08,5.65-7.79,11.76-12.02,14.4-13.7l.04.05c19.19-12.09,43.29-22.26,76.34-21.38,17.32.46,47.1,4.8,61.57,13.62.03.02.08.05.13.08.06.04.13.08.21.14,1.06.69,4.04,2.68,5.49,4,8.48,7.74,11.29,17-14.43,21.25h0c-22.97,3.71-66.74,6.01-126.84-1.93Z"/>
    <g id="text3093">
      <path id="path3095" class="cls-1" d="m111.59,376.65c0,1.19.93,2.1,2.05,2.1h18.67v49.85l12.3.04v-49.9h18.67c1.12,0,2.05-.91,2.05-2.1v-7.7c0-1.19-.93-2.1-2.05-2.1h-49.64c-1.12,0-2.05.91-2.05,2.1v7.7Z"/>
      <path id="path3097" class="cls-1" d="m155.36,405.86c0,13.13,11.01,23.35,24.64,23.35s24.73-10.21,24.73-23.35-11.01-23.62-24.73-23.62-24.64,10.4-24.64,23.62Zm13.63-.09c0-6.2,4.76-11.31,11.01-11.31s11.11,5.11,11.11,11.31-4.76,11.22-11.11,11.22-11.01-5.02-11.01-11.22Z"/>
      <path id="path3099" class="cls-1" d="m212.78,415.4c0,10.12,7.75,14.23,15.59,14.23,5.32,0,10.77-.74,14.24-3.39,5.67-4.32.92-13.1-6.81-8.75-2.29,1.29-6.06.63-6.76.35-1.56-.63-4.26-1.16-4.11-5.54v-19.12h11.41c8.75,0,8.64-11.03,0-11.03h-11.41v-15.1l-12.15-.04v15.15h-5.97v11.03h5.97v22.22Z"/>
      <path id="path3101" class="cls-1" d="m247.22,405.68c0,14.32,10.92,23.53,22.68,23.53,6.07,0,12.39-2.55,14.54-6.02v6.08l11.28-.04v-41.2c0-8.06-11.05-7.67-11.05-.45-2.15-3.47-8.61-5.34-14.68-5.34-11.76,0-22.77,9.03-22.77,23.44h0Zm13.63.09c0-6.2,4.76-11.31,11.11-11.31s11.11,5.11,11.11,11.31-4.76,11.31-11.11,11.31-11.11-5.11-11.11-11.31Z"/>
      <path id="path3103" class="cls-1" d="m319.07,428.65v-56.34c0-7.15-12.75-6.91-12.75,0v56.33h12.75Z"/>
      <path id="path3105" class="cls-1" d="m330.1,366.17c-1.21,0-2.05.91-2.05,2.01v58.35c0,1.19.84,2.1,2.05,2.1h41.28l.04-12.58h-29.37v-11.93h23.03c1.21,0,2.05-1,2.05-2.1v-8.03c0-1.19-.84-2.1-2.05-2.1h-23.03v-13.13h26.54c1.21,0,2.15-.91,2.15-2.1v-8.39c0-1.19-.93-2.1-2.15-2.1h-38.48Z"/>
      <path id="path3107" class="cls-1" d="m412.99,426.8c0,1.09,1.03,1.82,2.05,1.82h8.05c1.03,0,2.05-.73,2.05-1.82v-24.62c0-10.85-6.26-20.66-18.3-20.66-7.09,0-13.94,2.08-16.64,5.27,0-6.54-10.68-6.82-10.68-.58v42.46l12.06.04v-25.06c0-15.46,21.41-12.99,21.41,0v23.14Z"/>
      <path id="path3111" class="cls-1" d="m511.55,381.13c-6.64,0-12.08,3.94-14.6,7.86v-2.96c0-5.51-10.12-6.09-10.12.19v42.26l11.89.15v-21.55c0-6.49,4.35-13.64,9.03-14.4l4.82-.78c7.68,0,6.45-10.78-1.03-10.78h0Z"/>
      <path id="path3113" class="cls-1" d="m543.38,437.25c-6.16,0-12.04-.35-15.2-2.1-7.56-4.2-12.03,5.02-7.32,7.75,6.37,3.68,9.55,5.49,21.49,5.49,15.31,0,23.61-8.47,23.61-20.87v-41.3c0-5.45-10.59-6.08-10.59-.69v2.83c-2.24-3.47-8.66-5.42-14.82-5.42-11.76,0-22.4,8.94-22.4,23.07s10.55,22.89,22.96,22.89c5.97,0,10.83-2.55,12.88-5.65v3.82c0,5.93-3.43,10.19-10.62,10.19h0Zm-11.6-31.25c0-6.2,4.76-11.03,11.01-11.03s11.11,4.83,11.11,11.03-4.76,11.03-11.11,11.03-11.01-4.74-11.01-11.03Z"/>
      <path id="path3115" class="cls-1" d="m582.11,376.7c3.98,0,7.27-3.39,7.27-7.38s-3.3-7.46-7.27-7.46-7.36,3.39-7.36,7.46,3.3,7.38,7.36,7.38Zm4.23,51.92c1.02,0,1.78-.85,1.78-1.87v-38.26c0-8.07-12.18-8.07-12.18,0v38.26c0,1.02.85,1.87,1.86,1.87h8.54Z"/>
      <path id="path3117" class="cls-1" d="m619.78,381.46c-14.28,0-24.55,10.95-24.55,24.55s10.09,24.07,24.74,24.07c10.18,0,16.21-3.01,20.02-7.92,2.32-4.02-3.14-8.93-8.01-6.12-4.31,2.92-7.25,2.52-11.73,2.52-5.42,0-10.18-3.68-10.85-9.44h30.41c1.9,0,2.38-1.04,2.38-2.17v-2.55c0-11.8-7.76-22.94-22.41-22.94h0Zm10.28,19.17h-20.37c1.33-5.1,5.52-8.21,10.18-8.21s8.95,2.64,10.18,8.21Z"/>
      <path id="path3119" class="cls-1" d="m667,381.1c-12.5,0-20.25,6.63-20.25,15.06,0,7.49,5.14,12.13,12.79,13.64l7.75,1.61c4.46.85,6.78,1.8,6.78,4.07,0,1.99-2.13,3.88-6.49,3.88-4.65,0-9.47-.86-12.48-3.42-6.66-3.46-12.57,3.84-5.93,8.82,3.88,2.65,9.98,5.12,17.92,5.12,12.89,0,21.32-6.73,21.32-15.63s-6.59-12.41-14.63-13.93l-7.46-1.42c-3.97-.76-5.43-1.99-5.43-3.79,0-1.89,2.42-3.41,6.1-3.41,3.97,0,7.33.41,10.23,2.3,5.83,3.37,11.81-3.82,6.39-8.35-2.91-2.56-7.22-4.57-16.62-4.57h0Z"/>
      <path id="path3117-5" class="cls-1" d="m456.98,381.46c-14.28,0-24.55,10.95-24.55,24.55s10.09,24.07,24.74,24.07c10.18,0,16.21-3.01,20.02-7.92,2.32-4.02-3.14-8.93-8.01-6.12-4.31,2.92-7.25,2.52-11.73,2.52-5.42,0-10.18-3.68-10.85-9.44h30.41c1.9,0,2.38-1.04,2.38-2.17v-2.55c0-11.8-7.76-22.94-22.41-22.94h0Zm10.28,19.17h-20.37c1.33-5.1,5.52-8.21,10.18-8.21s8.95,2.64,10.18,8.21Z"/>
    </g>
  </g>
</svg>