<?xml version="1.0" encoding="UTF-8"?>
<svg id="Calque_1" data-name="Calque 1" xmlns="http://www.w3.org/2000/svg" viewBox="0 0 800 477">
  <defs>
    <style>
      .cls-1 {
        fill: #0f0b0b;
        stroke-width: 0px;
      }
    </style>
  </defs>
  <path class="cls-1" d="m689.26,281.85c0-9.47,7.69-17.15,17.15-17.15s17.15,7.68,17.15,17.15-7.68,17.15-17.15,17.15-17.15-7.68-17.15-17.15"/>
  <path class="cls-1" d="m142.27,236.42c0-10.86-2.1-18.92-6.3-24.17-4.2-5.25-10.57-7.87-19.13-7.87h-9.11v66.43h6.97c9.51,0,16.48-2.82,20.91-8.48,4.43-5.65,6.66-14.29,6.66-25.92m32.48-1.13c0,19.79-5.32,35.04-15.96,45.75-10.64,10.71-25.6,16.06-44.88,16.06h-37.46v-118.6h40.08c18.59,0,32.94,4.87,43.06,14.6,10.11,9.74,15.17,23.79,15.17,42.18"/>
  <path class="cls-1" d="m278.52,297.1h29.81v-119.09h-29.81v119.09Z"/>
  <path class="cls-1" d="m350.21,252.68c0,7.59.99,13.38,2.97,17.36,1.99,3.98,5.31,5.98,9.98,5.98s7.9-1.99,9.8-5.98c1.91-3.98,2.85-9.77,2.85-17.36s-.96-13.25-2.89-17.1c-1.94-3.86-5.24-5.79-9.92-5.79s-7.85,1.92-9.83,5.74c-1.98,3.83-2.97,9.54-2.97,17.14m55.96,0c0,14.47-3.79,25.75-11.39,33.84-7.6,8.09-18.23,12.14-31.91,12.14s-23.55-4.14-31.3-12.42c-7.76-8.28-11.63-19.46-11.63-33.57s3.8-25.63,11.4-33.62c7.6-7.99,18.26-11.99,31.99-11.99,8.48,0,15.99,1.85,22.49,5.55,6.51,3.7,11.53,8.99,15.06,15.89,3.53,6.89,5.3,14.95,5.3,24.16"/>
  <path class="cls-1" d="m418.01,297.1h29.82v-88.46h-29.82v88.46Z"/>
  <path class="cls-1" d="m418.01,197.94h29.82v-19.94h-29.82v19.94Z"/>
  <path class="cls-1" d="m508.23,274.54c4.03,0,8.82-1.02,14.41-3.05v22.26c-4.02,1.77-7.84,3.03-11.47,3.78-3.63.76-7.9,1.14-12.77,1.14-10.01,0-17.23-2.52-21.66-7.54-4.41-5.02-6.63-12.73-6.63-23.14v-36.47h-10.44v-22.87h10.44v-22.59l30.04-5.23v27.82h19.02v22.87h-19.02v34.43c0,5.73,2.69,8.59,8.07,8.59"/>
  <path class="cls-1" d="m577.23,274.54c4.03,0,8.82-1.02,14.41-3.05v22.26c-4.01,1.77-7.84,3.03-11.47,3.78-3.64.76-7.89,1.14-12.77,1.14-10.01,0-17.23-2.52-21.65-7.54-4.42-5.02-6.63-12.73-6.63-23.14v-36.47h-10.45v-22.87h10.45v-22.93l30.04-4.88v27.82h19.03v22.87h-19.03v34.43c0,5.73,2.69,8.59,8.08,8.59"/>
  <path class="cls-1" d="m629.27,241.9c.41-4.84,1.79-8.39,4.15-10.66,2.37-2.26,5.3-3.39,8.8-3.39,3.82,0,6.86,1.27,9.11,3.83,2.27,2.55,3.45,5.96,3.54,10.22h-25.61,0Zm42.04-24.4c-7.09-6.95-17.14-10.43-30.15-10.43-13.67,0-24.19,3.99-31.57,11.99-7.37,7.99-11.06,19.45-11.06,34.39s3.99,25.62,11.94,33.45c7.95,7.83,19.13,11.75,33.51,11.75,6.91,0,12.85-.47,17.84-1.41,4.95-.93,9.75-2.61,14.4-5.03l-4.58-19.94c-3.38,1.38-6.6,2.44-9.63,3.14-4.39,1.02-9.2,1.53-14.44,1.53-5.75,0-10.28-1.4-13.61-4.21-3.32-2.81-5.1-6.69-5.3-11.64h53.29v-13.58c0-13.07-3.54-23.08-10.64-30.02"/>
  <path class="cls-1" d="m214.31,241.9c.41-4.84,1.79-8.39,4.15-10.66,2.37-2.26,5.3-3.39,8.81-3.39,3.81,0,6.85,1.27,9.11,3.83,2.27,2.55,3.44,5.96,3.55,10.22h-25.62Zm42.05-24.4c-7.09-6.95-17.14-10.43-30.15-10.43-13.68,0-24.19,3.99-31.56,11.99-7.37,7.99-11.06,19.45-11.06,34.39s3.98,25.62,11.94,33.45c7.95,7.83,19.12,11.75,33.51,11.75,6.91,0,12.85-.47,17.84-1.41,4.95-.93,9.75-2.61,14.4-5.03l-4.59-19.94c-3.38,1.38-6.6,2.44-9.63,3.14-4.4,1.02-9.21,1.53-14.45,1.53-5.74,0-10.28-1.4-13.61-4.21-3.33-2.81-5.1-6.69-5.3-11.64h53.29v-13.58c0-13.07-3.54-23.08-10.63-30.02"/>
</svg>