<?xml version="1.0" encoding="UTF-8"?>
<svg id="Calque_1" data-name="Calque 1" xmlns="http://www.w3.org/2000/svg" viewBox="0 0 800 477">
  <defs>
    <style>
      .cls-1 {
        fill: #0f0b0b;
        stroke-width: 0px;
      }
    </style>
  </defs>
  <g>
    <path class="cls-1" d="m271.48,210.3c-56.97-9.66-85.3,58.26-131.22,63.94-33.47,4.18-57.83-19.74-61.91-37.34-2.47,34.12,28.43,58.37,62.76,56.86,57.51-2.68,87.98-72.74,130.36-83.47Z"/>
    <path class="cls-1" d="m227.39,209.45c-43.45-6.01-53.64,26.18-88.73,37.66-22.64,7.4-40.02,1.93-52.36-12.12,5.79,18.45,28,31.54,47.64,29.93,38.52-3,60.3-45.71,93.45-55.47Z"/>
    <path class="cls-1" d="m135.22,238.84c8.15-2.68,14.05-6.12,19.2-9.55,3.97-2.68,18.24-12.77,25.43-17.17-6.12-16.95-22.21-28.97-41.2-28.97-24.14,0-43.77,19.63-43.77,43.77,0,2.04.11,3.97.43,6.01,10.19,7.51,24.14,11.05,39.91,5.9Z"/>
  </g>
  <g>
    <path class="cls-1" d="m266.98,233.16h16.31l-1.29,6.22h.21c2.25-2.15,4.94-3.86,8.26-5.26,3.22-1.39,7.08-2.04,11.37-2.04,2.68,0,5.04.32,7.08.97,2.15.64,3.76,1.61,5.15,2.9,1.39,1.29,2.25,3,2.79,4.94.54,1.93.54,4.29,0,6.97l-5.9,28.22h-16.74l4.72-23.17c1.18-5.47-1.18-8.15-6.97-8.15-3,0-5.69.86-8.05,2.47-2.36,1.72-3.86,4.29-4.61,7.83l-4.4,21.03h-16.74l8.8-42.92Z"/>
    <path class="cls-1" d="m321.26,254.61c1.61-7.72,5.36-13.52,11.27-17.38,5.9-3.86,13.84-5.79,23.6-5.79s16.84,1.93,21.14,5.79c4.29,3.86,5.69,9.66,4.08,17.38-1.61,7.72-5.36,13.52-11.27,17.38s-13.84,5.79-23.6,5.79-16.84-1.93-21.14-5.79c-4.4-3.86-5.69-9.66-4.08-17.38Zm32.51-12.12c-3.76,0-7.08.97-9.66,3s-4.4,5.04-5.26,9.12c-.86,4.08-.32,7.19,1.39,9.12,1.82,1.93,4.61,3,8.37,3s7.08-.97,9.66-3c2.57-2.04,4.4-5.04,5.26-9.12.86-4.18.32-7.19-1.39-9.12-1.72-2.04-4.51-3-8.37-3Z"/>
    <path class="cls-1" d="m391.86,233.16h16.74l-4.61,22.1c-.75,3.65-.54,6.22.64,7.62,1.18,1.5,3.11,2.15,6.01,2.15s5.69-.86,8.05-2.47c2.36-1.72,3.86-4.29,4.61-7.83l4.51-21.67h16.74l-8.91,42.92h-16.31l1.07-5.58h-.21c-2.25,2.15-4.94,3.86-8.26,5.26-3.22,1.39-7.08,2.04-11.27,2.04-2.57,0-4.94-.32-6.97-.97-2.15-.64-3.76-1.61-5.15-2.9-1.39-1.39-2.25-3.11-2.68-5.36-.43-2.25-.43-4.94.21-8.15l5.79-27.14Z"/>
    <path class="cls-1" d="m447.65,233.16h19.1l4.4,28.22,16.2-28.22h19.1l-28.65,42.92h-19.2l-10.94-42.92Z"/>
    <path class="cls-1" d="m558.48,263.3c-.86,1.82-2.15,3.54-3.86,5.26s-3.86,3.22-6.33,4.61c-2.57,1.39-5.58,2.47-9.12,3.33-3.54.86-7.51,1.29-12.12,1.29-9.66,0-16.74-1.93-21.14-5.69-4.4-3.76-5.79-9.66-4.08-17.6.75-3.76,2.15-7.19,4.18-9.98,2.04-2.9,4.51-5.26,7.51-7.19,3-1.93,6.44-3.43,10.3-4.4s8.05-1.5,12.45-1.5,8.58.54,12.12,1.5c3.43,1.07,6.22,2.57,8.37,4.72,2.15,2.15,3.54,4.83,4.29,8.05.75,3.22.64,7.08-.32,11.59l-.32,1.29h-42.16c-.11,1.39.11,2.68.54,3.86.32,1.18.97,2.25,1.93,3,.97.86,2.15,1.5,3.54,1.93,1.5.54,3.33.75,5.47.75,2.68,0,4.94-.54,6.65-1.5s3.22-2.15,4.51-3.33h17.6Zm-13.73-13.41c0-1.18-.21-2.25-.54-3.33s-.97-2.04-1.82-2.79c-.86-.75-1.93-1.39-3.22-1.93-1.39-.54-3-.75-5.04-.75-3.97,0-7.08.86-9.33,2.57-2.25,1.72-3.97,3.76-4.83,6.22h24.78Z"/>
    <path class="cls-1" d="m573.93,218.14h16.84l-12.02,57.94h-16.74l11.91-57.94Z"/>
    <path class="cls-1" d="m592.6,246.57c1.07-3.11,2.57-5.69,4.61-7.62,2.04-1.93,4.29-3.43,6.97-4.4,2.68-1.07,5.47-1.72,8.69-2.04,3.11-.32,6.33-.54,9.66-.54,3.86,0,7.4.21,10.62.64s6.01,1.07,8.26,2.15c2.25,1.07,3.86,2.57,4.83,4.4.97,1.93,1.18,4.4.54,7.4l-4.51,21.67c-.32,1.72-.54,3.11-.54,4.4,0,.54.11,1.18.21,1.72.11.54.32,1.07.54,1.72h-16.74c-.21-.64-.21-1.29-.21-1.93v-1.07c0-.32.11-.64.11-.97-2.9,2.36-6.12,3.86-9.66,4.61-3.54.75-7.4,1.07-11.69,1.07-13.95,0-19.96-4.4-18.24-13.41.54-2.47,1.39-4.51,2.57-6.22,1.18-1.72,2.57-3.11,4.4-4.18,1.72-1.07,3.86-1.93,6.33-2.47,2.47-.54,5.15-.97,8.26-1.18l16.95-1.07c2.15-.11,3.65-.43,4.4-.97.75-.54,1.18-1.39,1.39-2.47.32-1.5-.32-2.68-1.82-3.43s-4.18-1.18-7.83-1.18c-3.22,0-5.58.43-7.4,1.29-1.72.86-3,2.25-3.76,4.08h-16.95Zm35.94,9.44c-.64.21-1.61.43-2.68.64-1.07.21-2.36.32-3.97.64l-11.69,1.39c-1.72.21-3.11.64-3.97,1.39-.86.64-1.5,1.72-1.72,3-.32,1.72,0,3,1.29,3.86,1.18.86,2.9,1.39,5.15,1.39,4.94,0,8.8-.86,11.69-2.47,2.9-1.72,4.72-3.97,5.26-6.97l.64-2.9Z"/>
    <path class="cls-1" d="m657.62,233.16h16.74l-8.91,42.92h-16.74l8.91-42.92Zm3.11-15.02h16.74l-2.15,10.09h-16.74l2.15-10.09Z"/>
    <path class="cls-1" d="m681.87,233.16h16.52l-1.72,8.48h.11c2.25-2.79,5.15-5.15,8.58-6.87,3.43-1.82,7.08-2.68,10.84-2.68.86,0,1.82,0,2.9.11s1.93.21,2.68.32l-3.22,15.66c-.97-.43-2.36-.75-4.08-1.07-1.72-.21-3.33-.43-4.94-.43-4.83,0-8.58,1.07-11.16,3.33-2.68,2.25-4.4,5.36-5.26,9.33l-3.43,16.63h-16.74l8.91-42.81Z"/>
  </g>
</svg>